<svg width="100" height="26" viewBox="0 0 100 26" fill="none" xmlns="http://www.w3.org/2000/svg">
<g clip-path="url(#clip0_470_642)">
<path d="M5.02513 0.502518L9.29648 12.9816L13.4841 0.502518H18.4255L11.0553 19.0117H7.37018L0 0.502518H5.02513Z" fill="#FF5B24"/>
<path d="M29.5642 16.0804C32.663 16.0804 34.4218 14.5729 36.0968 12.3953C37.0181 11.2228 38.1906 10.9715 39.0282 11.6415C39.8657 12.3116 39.9494 13.5678 39.0282 14.7404C36.5993 17.9229 33.5005 19.8492 29.5642 19.8492C25.2928 19.8492 21.524 17.5042 18.9277 13.4003C18.1739 12.3116 18.3414 11.139 19.1789 10.5528C20.0164 9.9665 21.2727 10.2178 22.0265 11.3903C23.869 14.1541 26.3816 16.0804 29.5642 16.0804ZM35.3431 5.77889C35.3431 7.28643 34.1705 8.29145 32.8305 8.29145C31.4905 8.29145 30.3179 7.28643 30.3179 5.77889C30.3179 4.27135 31.4905 3.26633 32.8305 3.26633C34.1705 3.26633 35.3431 4.3551 35.3431 5.77889Z" fill="#FF5B24"/>
<path d="M47.1523 0.502513V3.01508C48.4085 1.25628 50.3348 0 53.1824 0C56.7838 0 60.9714 3.01508 60.9714 9.46399C60.9714 16.2479 56.9513 19.5142 52.7637 19.5142C50.5861 19.5142 48.5761 18.6767 47.0685 16.5829V25.4606H42.5459V0.502513H47.1523ZM47.1523 9.71524C47.1523 13.4841 49.3298 15.4941 51.7586 15.4941C54.1874 15.4941 56.4487 13.6516 56.4487 9.71524C56.4487 5.77889 54.1037 4.0201 51.7586 4.0201C49.4136 4.0201 47.1523 5.77889 47.1523 9.71524Z" fill="#FF5B24"/>
<path d="M68.9277 0.502513V3.01508C70.1839 1.25628 72.1102 0 74.9578 0C78.5591 0 82.7467 3.01508 82.7467 9.46399C82.7467 16.2479 78.7266 19.5142 74.539 19.5142C72.3615 19.5142 70.3514 18.6767 68.8439 16.5829V25.4606H64.3213V0.502513H68.9277ZM68.9277 9.71524C68.9277 13.4841 71.1052 15.4941 73.534 15.4941C75.9628 15.4941 78.2241 13.6516 78.2241 9.71524C78.2241 5.77889 75.8791 4.0201 73.534 4.0201C71.189 4.0201 68.9277 5.77889 68.9277 9.71524Z" fill="#FF5B24"/>
<path d="M92.379 0C96.1479 0 98.8279 1.75879 100 6.1139L95.8966 6.78392C95.8129 4.60637 94.4728 3.8526 92.4628 3.8526C90.9552 3.8526 89.7827 4.52261 89.7827 5.61139C89.7827 6.44891 90.369 7.28643 92.1278 7.62144L95.2266 8.2077C98.2417 8.79397 99.9167 10.804 99.9167 13.4841C99.9167 17.5042 96.3154 19.5142 92.8815 19.5142C89.4477 19.5142 85.2601 17.6717 84.6738 13.1491L88.7777 12.4791C89.0289 14.8241 90.4527 15.6616 92.7978 15.6616C94.5566 15.6616 95.7291 14.9916 95.7291 13.9028C95.7291 12.8978 95.1428 12.1441 93.2165 11.809L90.369 11.3065C87.3539 10.7203 85.5113 8.62646 85.5113 5.9464C85.5951 1.75879 89.3639 0 92.379 0V0Z" fill="#FF5B24"/>
</g>
<defs>
<clipPath id="clip0_470_642">
<rect width="100" height="25.4606" fill="white"/>
</clipPath>
</defs>
</svg>
