<svg width="54" height="54" viewBox="0 0 54 54" fill="none" xmlns="http://www.w3.org/2000/svg">
<g clip-path="url(#clip0_470_613)">
<path d="M44.0722 24.6848C44.0722 24.6848 44.7843 28.1728 44.9446 28.9035H41.8143L43.3145 24.8248C43.2959 24.8535 43.6233 23.9709 43.8106 23.4276L44.0722 24.6848ZM53.9997 10.4996V43.5004C53.9993 44.6939 53.525 45.8383 52.6811 46.6823C51.8371 47.5262 50.6927 48.0005 49.4992 48.0009H4.49861C3.30512 48.0005 2.16065 47.5262 1.31673 46.6823C0.472803 45.8383 -0.00150588 44.6939 -0.00195312 43.5004V10.4996C-0.00150588 9.30615 0.472803 8.16167 1.31673 7.31775C2.16065 6.47383 3.30512 5.99952 4.49861 5.99907H49.4992C50.6927 5.99952 51.8371 6.47383 52.6811 7.31775C53.525 8.16167 53.9993 9.30615 53.9997 10.4996ZM14.2962 34.0504L20.2211 19.5008H16.2369L12.553 29.4384L12.1497 27.4236L10.8369 20.7293C10.6209 19.8011 9.95599 19.5379 9.1308 19.5008H3.06592L3.00011 19.791C4.38905 20.1317 5.72136 20.6717 6.95561 21.3941L10.312 34.0504H14.2962ZM23.1472 34.0689L25.5097 19.5008H21.7415L19.3891 34.0689H23.1472ZM36.2624 29.3068C36.281 27.648 35.2685 26.3824 33.1034 25.3412C31.7821 24.6746 30.9755 24.2258 30.9755 23.5406C30.9941 22.9213 31.6606 22.2834 33.1405 22.2834C34.1045 22.2563 35.0623 22.4454 35.9435 22.8369L36.281 22.9956L36.7974 19.845C35.7201 19.4326 34.5759 19.2226 33.4224 19.2257C29.6997 19.2257 27.0841 21.2136 27.0655 24.0435C27.0369 26.1343 28.9404 27.297 30.3663 27.999C31.8192 28.7111 32.317 29.1803 32.317 29.808C32.2985 30.7834 31.1358 31.2323 30.0575 31.2323C28.5573 31.2323 27.7507 30.9977 26.5222 30.4543L26.0261 30.2198L25.5012 33.4918C26.3821 33.8951 28.0139 34.2512 29.7014 34.2698C33.6569 34.2782 36.2354 32.319 36.2641 29.3018L36.2624 29.3068ZM49.4992 34.0689L46.4617 19.5008H43.5457C42.6462 19.5008 41.9611 19.764 41.5764 20.7107L35.9789 34.0706H39.9344C39.9344 34.0706 40.5807 32.2701 40.7225 31.887H45.5606C45.6736 32.4034 46.0111 34.0706 46.0111 34.0706L49.4992 34.0689Z" fill="#1A1F71"/>
</g>
<defs>
<clipPath id="clip0_470_613">
<rect width="54" height="54" fill="white"/>
</clipPath>
</defs>
</svg>
