<svg width="160" height="59" viewBox="0 0 160 59" fill="none" xmlns="http://www.w3.org/2000/svg">
<g clip-path="url(#clip0_370_4256)">
<path d="M68.4267 56.96L65.92 51.6267H63.84V58.4H65.2267V52.8L67.84 58.4H69.8133V51.6267H68.48V56.96H68.4267ZM0 52.7467H2.02667V58.4H3.46667V52.7467H5.49333V51.6267H0V52.7467ZM12.96 54.3467H10.4V51.6267H8.96V58.4H10.4V55.4133H12.96V58.4H14.4V51.6267H12.9067V54.3467H12.96ZM83.52 51.6267L81.0667 58.4H82.4533L82.9333 56.96H85.6L86.08 58.4H87.52L85.1733 51.6267H83.52ZM83.36 55.84L84.3733 52.96L85.3333 55.84H83.36ZM19.9467 55.4667H22.8267V54.3467H19.9467V52.7467H23.04V51.6267H18.5067V58.4H23.1467V57.28H19.9467V55.4667ZM36 56.5333L34.56 51.6267H32.2133V58.4H33.5467V52.5867L35.36 58.4H36.5333L38.4 52.5867V58.4H39.84V51.6267H37.5467L36 56.5333ZM58.1867 55.68C58.1867 56.3733 58.1333 56.64 57.9733 56.8533C57.6 57.44 56.9067 57.44 56.64 57.44C55.2533 57.44 55.1467 56.5333 55.1467 55.7867V51.68H53.7067V55.7333C53.7067 56.3733 53.7067 56.9067 54.0267 57.3867C54.6667 58.4 55.8933 58.56 56.5867 58.56C57.9733 58.56 59.5733 57.92 59.5733 55.8933V51.68H58.1867V55.68ZM46.72 51.52C44.2667 51.52 43.4667 53.3333 43.4667 55.1467C43.4667 55.7867 43.5733 56.9067 44.32 57.6533C44.96 58.2933 45.8133 58.56 46.72 58.56C47.3067 58.56 48.3733 58.4533 49.12 57.6C49.6533 56.96 49.9733 55.9467 49.9733 54.9333C49.9733 54.2933 49.8133 53.2267 49.12 52.3733C48.48 51.68 47.4667 51.52 46.72 51.52ZM48 56.8533C47.7333 57.28 47.3067 57.4933 46.72 57.4933C46.0267 57.4933 45.7067 57.2267 45.4933 56.96C45.0667 56.4267 45.0133 55.7333 45.0133 55.0933C45.0133 54.3467 45.12 53.6 45.4933 53.12C45.76 52.8 46.1867 52.5333 46.72 52.5333C47.4133 52.5333 48 52.9067 48.2667 53.7067C48.4267 54.1333 48.4267 54.56 48.4267 54.9333C48.48 56 48.2133 56.5333 48 56.8533ZM73.1733 52.7467H75.2V58.4H76.64V52.7467H78.6667V51.6267H73.1733V52.7467ZM140.853 51.68H138.773V58.4H140.267V55.7867H141.227C141.6 55.7867 142.24 55.7867 142.773 55.4667C143.307 55.1467 143.627 54.4533 143.627 53.6533C143.627 53.3333 143.573 52.8 143.2 52.3733C142.613 51.7333 141.813 51.68 140.853 51.68ZM140.747 54.72H140.16V52.8H140.907C141.333 52.8 142.08 52.8 142.08 53.7067C142.08 54.72 141.227 54.72 140.747 54.72ZM121.92 55.4667H124.8V54.3467H121.92V52.7467H125.013V51.6267H120.48V58.4H125.12V57.28H121.92V55.4667ZM113.973 51.68H111.893V58.4H113.387V55.7867H114.347C114.72 55.7867 115.36 55.7867 115.893 55.4667C116.427 55.1467 116.747 54.4533 116.747 53.6533C116.747 53.3333 116.693 52.8 116.32 52.3733C115.787 51.7333 114.933 51.68 113.973 51.68ZM113.92 54.72H113.333V52.8H114.08C114.507 52.8 115.253 52.8 115.253 53.7067C115.253 54.72 114.4 54.72 113.92 54.72ZM131.733 51.52C129.28 51.52 128.48 53.3333 128.48 55.1467C128.48 55.7867 128.587 56.9067 129.333 57.6533C129.973 58.2933 130.827 58.56 131.733 58.56C132.32 58.56 133.387 58.4533 134.133 57.6C134.667 56.96 134.987 55.9467 134.987 54.9333C134.987 54.2933 134.827 53.2267 134.133 52.3733C133.493 51.68 132.48 51.52 131.733 51.52ZM133.013 56.8533C132.747 57.28 132.32 57.4933 131.733 57.4933C131.04 57.4933 130.72 57.2267 130.507 56.96C130.08 56.4267 130.027 55.7333 130.027 55.0933C130.027 54.3467 130.133 53.6 130.507 53.12C130.773 52.8 131.2 52.5333 131.733 52.5333C132.427 52.5333 133.013 52.9067 133.28 53.7067C133.44 54.1333 133.44 54.56 133.44 54.9333C133.493 56 133.227 56.5333 133.013 56.8533ZM156.8 57.28V55.4667H159.68V54.3467H156.8V52.7467H159.893V51.6267H155.36V58.4H160V57.28H156.8ZM101.227 56.96L98.72 51.6267H96.64V58.4H98.0267V52.8L100.64 58.4H102.613V51.6267H101.28V56.96H101.227ZM91.0933 58.4H92.5333V51.6267H91.0933V58.4ZM148.747 51.68H147.253V58.4H151.627V57.2267H148.747V51.68ZM30.1333 7.36C31.2 6.29333 32.16 5.86667 32.8533 5.92C33.76 6.02667 33.92 6.45333 34.1867 7.52C34.2933 7.89333 34.4 8.26667 34.56 8.69333C37.9733 18.2933 47.8933 16 48 15.9467C48 15.9467 48.48 15.84 49.12 15.5733C49.2267 15.52 49.3333 15.4133 49.3333 15.2533C49.3333 15.1467 49.2267 15.04 49.0667 15.04C47.2 14.9333 44.8 14.08 41.2267 8.53333L40.96 8.10667C39.5733 5.92 38.4533 4.21333 34.7733 4.48C33.1733 4.58667 32 5.17333 30.9333 5.65333C30.2933 5.97333 29.6533 6.24 29.0133 6.4C27.3067 6.82667 26.24 6.77333 25.3333 6.72C25.12 6.72 24.96 6.72 24.8 6.66667C21.0667 6.50667 19.04 4.69333 18.1333 0.8C18.08 0.693333 17.9733 0.586667 17.8667 0.586667C17.7067 0.586667 17.6 0.693333 17.5467 0.8C17.3867 1.17333 17.0133 2.18667 16.9067 3.2C16.48 7.62667 18.08 10.4 21.3333 10.7733C22.6133 11.0933 26.2933 11.0933 30.1333 7.36ZM141.12 3.04C141.12 2.18667 140.8 1.44 140.213 0.853333C139.627 0.266667 138.88 0 138.08 0C137.227 0 136.48 0.32 135.893 0.906667C135.307 1.49333 134.987 2.24 134.987 3.09333C134.987 3.94667 135.307 4.64 135.893 5.22667C136.48 5.81333 137.227 6.13333 138.027 6.13333C138.88 6.13333 139.573 5.86667 140.16 5.28C140.8 4.64 141.12 3.94667 141.12 3.04ZM138.08 5.76C137.333 5.76 136.747 5.49333 136.267 4.96C135.787 4.42667 135.52 3.78667 135.52 3.09333C135.52 2.34667 135.787 1.70667 136.267 1.17333C136.747 0.64 137.387 0.373333 138.08 0.373333C138.773 0.373333 139.36 0.64 139.893 1.17333C140.373 1.70667 140.64 2.34667 140.64 3.04C140.64 3.78667 140.373 4.42667 139.84 4.96C139.36 5.49333 138.72 5.76 138.08 5.76ZM113.6 3.62667C113.867 4.05333 114.027 4.74667 114.027 5.70667V32.64C114.027 33.3867 114.933 34.1333 116.747 34.88C118.56 35.6267 120.427 36 122.293 36C126.027 36 129.067 34.72 131.36 32.16C133.653 29.6 134.773 26.5067 134.773 22.9333C134.773 19.5733 133.867 16.8533 132.107 14.72C130.347 12.64 128.213 11.5733 125.707 11.5733C123.68 11.5733 121.867 12.2133 120.32 13.4933C119.413 14.24 118.773 14.9867 118.347 15.7867V0.32C118.347 0.213333 118.347 0.106667 118.293 0C118.187 0 117.333 0.266667 115.787 0.8C114.24 1.33333 112.48 1.81333 110.56 2.29333V3.14667L111.733 3.04C112.693 3.04 113.333 3.25333 113.6 3.62667ZM118.24 18.8267C118.24 17.7067 118.827 16.7467 119.947 16C121.12 15.2533 122.293 14.88 123.467 14.88C125.867 14.88 127.573 15.9467 128.64 18.08C129.707 20.2133 130.24 22.56 130.24 25.12C130.24 27.68 129.653 29.8133 128.533 31.5733C127.413 33.3333 125.653 34.24 123.253 34.24C122.347 34.24 121.333 34.0267 120.16 33.6533C118.987 33.28 118.347 32.64 118.187 31.7333V18.8267H118.24ZM108 32.96C107.307 32.96 106.827 32.64 106.613 31.9467C106.453 31.5733 106.4 30.88 106.4 29.92V19.7333C106.4 17.4933 106.08 15.7867 105.44 14.6133C104.267 12.48 102.027 11.4133 98.72 11.4133C95.8933 11.4133 93.7067 12.0533 92.2667 13.3867C90.7733 14.6667 90.08 15.9467 90.08 17.12C90.08 17.7067 90.2933 18.2933 90.6667 18.7733C91.0933 19.2533 91.68 19.52 92.4267 19.52C92.9067 19.52 93.3333 19.4133 93.7067 19.2C94.3467 18.8267 94.6667 18.1867 94.6667 17.2267C94.6667 17.0667 94.6133 16.8 94.56 16.32C94.4533 15.84 94.4533 15.4667 94.4533 15.3067C94.4533 14.5067 94.8267 13.8667 95.6267 13.44C96.4267 13.0133 97.2267 12.8 98.08 12.8C99.8933 12.8 101.067 13.3867 101.653 14.5067C101.973 15.2 102.187 16.3733 102.187 18.1333V20.32C97.4933 22.08 94.4 23.4667 92.8533 24.48C90.4 26.1333 89.1733 28.16 89.1733 30.6667C89.1733 32.2667 89.7067 33.5467 90.7733 34.56C91.84 35.5733 93.12 36.1067 94.56 36.1067C96 36.1067 97.44 35.6267 98.9867 34.72C99.8933 34.1867 101.013 33.3333 102.293 32.2133C102.347 33.2267 102.613 34.1333 103.147 34.88C103.68 35.6267 104.48 36 105.653 36C106.613 36 107.627 35.68 108.533 35.04C109.173 34.6133 109.76 34.08 110.293 33.3867V32.0533C109.653 32.5333 109.227 32.8 108.96 32.9067C108.693 32.9067 108.373 32.96 108 32.96ZM102.187 29.4933C102.187 30.4533 101.653 31.2533 100.64 31.8933C99.6267 32.5333 98.56 32.8533 97.44 32.8533C96.64 32.8533 95.8933 32.64 95.2 32.16C94.1867 31.4133 93.6533 30.2933 93.6533 28.7467C93.6533 26.8267 94.88 25.12 97.3333 23.6267C98.6133 22.8267 100.213 22.1333 102.187 21.4933V29.4933ZM138.56 3.14667C139.04 2.98667 139.253 2.66667 139.253 2.24C139.253 1.97333 139.147 1.76 138.933 1.65333C138.72 1.49333 138.453 1.44 138.187 1.44H136.587V1.6C136.8 1.6 136.907 1.65333 136.96 1.70667C137.013 1.76 137.013 1.86667 137.013 2.02667V4.21333C137.013 4.37333 137.013 4.48 136.96 4.53333C136.907 4.58667 136.8 4.58667 136.587 4.64V4.8H138.027V4.64C137.813 4.64 137.707 4.58667 137.653 4.53333C137.6 4.48 137.6 4.37333 137.6 4.21333V3.30667H138.08C138.293 3.62667 138.507 4 138.72 4.32C138.88 4.58667 139.04 4.74667 139.147 4.74667H139.733V4.58667C139.467 4.32 139.253 4.10667 139.147 3.94667L138.56 3.14667ZM137.973 3.09333H137.6V1.6H137.973C138.453 1.6 138.667 1.81333 138.667 2.29333C138.667 2.77333 138.453 3.09333 137.973 3.09333ZM67.52 34.6133C65.5467 34.4533 64.2667 34.08 63.68 33.6C63.0933 33.0667 62.8267 31.84 62.8267 29.92V19.6267L65.7067 19.52L78.1333 35.52H86.56V34.56C85.5467 34.4533 84.6933 34.24 84 33.8667C83.36 33.4933 82.6667 32.9067 82.0267 32.1067L71.3067 18.88C74.1867 18.4533 76.48 17.5467 78.1867 16.1067C79.8933 14.72 80.6933 12.6933 80.6933 10.1333C80.6933 6.24 78.7733 3.62667 74.9867 2.18667C72.96 1.44 70.4533 1.06667 67.4667 1.06667H53.0133V2.02667C54.88 2.18667 56.1067 2.56 56.6933 3.09333C57.2267 3.68 57.5467 4.85333 57.5467 6.72V29.3333C57.5467 31.52 57.28 32.9067 56.8 33.4933C56.32 34.08 55.04 34.4533 53.0667 34.6667V35.52H67.5733V34.6133H67.52ZM62.8267 4.85333C62.8267 4.05333 62.9867 3.57333 63.3067 3.36C63.6267 3.14667 64.5333 3.04 66.0267 3.04C68.2133 3.04 69.9733 3.36 71.3067 3.94667C73.76 5.06667 75.04 7.09333 75.04 10.1333C75.04 13.1733 73.6533 15.4133 70.88 16.5333C69.28 17.1733 66.56 17.5467 62.8267 17.7067V4.85333ZM52.5333 28.32C50.6667 28.2133 48.2667 27.36 44.6933 21.8133L44.4267 21.3867C43.04 19.2 41.92 17.4933 38.24 17.76C36.64 17.8667 35.4667 18.4533 34.4 18.9333C33.76 19.2533 33.12 19.52 32.48 19.68C30.7733 20.1067 29.7067 20.0533 28.8 20C28.5867 20 28.4267 20 28.2667 19.9467C24.5333 19.7867 22.5067 17.9733 21.6 14.08C21.5467 13.9733 21.44 13.8667 21.3333 13.8667C21.1733 13.8667 21.0667 13.9733 21.0133 14.08C20.8533 14.4533 20.48 15.4667 20.3733 16.48C19.9467 20.9067 21.5467 23.6267 24.8 24.0533C26.1867 24.2133 29.8667 24.2667 33.7067 20.5333C34.7733 19.4667 35.7333 19.04 36.4267 19.0933C37.3333 19.2 37.4933 19.6267 37.76 20.6933C37.8667 21.0667 37.9733 21.44 38.1333 21.8667C41.5467 31.4133 51.52 29.12 51.6267 29.0667C51.6267 29.0667 52.1067 28.96 52.7467 28.6933C52.8533 28.64 52.96 28.5333 52.96 28.3733C52.7467 28.4267 52.64 28.32 52.5333 28.32Z" fill="black"/>
</g>
<defs>
<clipPath id="clip0_370_4256">
<rect width="160" height="58.56" fill="white"/>
</clipPath>
</defs>
</svg>
