<svg width="160" height="32" viewBox="0 0 160 32" fill="none" xmlns="http://www.w3.org/2000/svg">
<g clip-path="url(#clip0_370_4251)">
<path fill-rule="evenodd" clip-rule="evenodd" d="M31.0866 15.5992H30.1032C28.3585 15.5992 26.9389 16.9077 26.9389 18.6523C26.9389 20.0719 27.3751 21.7053 29.2309 21.7053C30.8643 21.7053 31.1978 20.3969 31.1978 19.0884V15.813C31.1978 15.813 31.309 15.5906 31.0866 15.5906V15.5992ZM80.7825 31.5231H77.3446C74.8816 31.2323 72.7436 30.283 72.7436 28.0338C72.7436 26.4004 74.5994 25.1946 76.1217 24.9808C76.1217 24.9808 76.5578 24.8696 76.1217 24.8696C75.5743 24.7584 72.6324 24.5446 71.6489 24.7584C71.6489 24.7584 71.4266 24.7584 71.324 24.5446C71.2128 24.3223 70.6655 22.8 70.5628 22.6888C70.4517 22.475 70.674 22.3639 70.674 22.3639C72.8548 22.0389 74.8217 20.9442 75.6941 20.6192C76.2414 20.5081 75.6941 20.4054 75.6941 20.4054C72.641 19.8581 69.5879 17.7885 69.5879 14.1881C69.5879 9.06544 73.8383 6.7735 77.8748 6.7735C79.7306 6.7735 80.8167 7.09847 81.8002 7.20965C81.8002 7.20965 81.9114 7.32083 82.0226 7.09847C82.0226 6.7735 82.3475 5.90119 82.3475 5.90119C82.7837 4.59273 83.4422 4.0454 85.4006 4.0454C85.8368 4.0454 86.2729 4.0454 86.5979 4.15657C86.5979 4.15657 86.8202 4.0454 86.8202 4.37893C86.7091 4.4901 86.0591 7.10702 86.0591 7.2182C85.9479 7.54318 85.8453 7.32938 85.8453 7.32938C85.5203 7.10702 85.4092 7.0044 84.648 7.10703C84.2119 7.10703 83.9895 7.432 83.9895 7.86816C83.9895 8.62929 87.4788 9.72395 87.4788 13.8631C87.4788 19.422 82.3561 20.6278 77.8834 21.7139C77.8834 21.7139 77.4472 21.8251 77.8834 21.8251C80.8253 22.1501 86.94 22.9197 86.94 26.7339C86.94 29.9495 83.3567 31.1896 80.7996 31.5316L80.7825 31.5231ZM38.0651 22.6888H38.9374C39.1598 22.6888 39.1598 22.9112 39.1598 22.9112V24.6558C39.1598 24.9808 38.8348 24.8696 38.8348 24.8696H31.8563C31.8563 24.8696 31.7451 24.8696 31.7451 24.6558C31.634 24.2196 31.4202 23.7835 31.4202 23.4585C31.309 23.0224 31.0952 23.4585 31.0952 23.4585C29.6756 24.5532 28.0421 25.4255 26.0752 25.4255C22.7997 25.4255 20.294 23.3559 20.294 19.9693C20.294 15.8215 22.9109 13.5382 26.1863 13.5382L31.2064 13.3158V12.5547C31.2064 11.135 30.4452 10.4851 28.8033 10.4851C26.7337 10.4851 25.7502 11.2462 24.7667 12.452C24.7667 12.452 24.7667 12.5632 24.5443 12.5632C24.322 12.452 22.5774 11.8021 22.5774 11.8021C22.5774 11.8021 22.355 11.8021 22.4662 11.5797C22.5774 11.3574 24.7581 6.12354 24.7581 6.12354C24.7581 6.12354 24.7581 5.90119 24.8693 6.01236C25.1943 6.12354 26.5028 6.55969 26.8363 6.55969C27.0586 6.67087 26.9475 6.88467 26.9475 6.88467C26.9475 6.88467 26.8363 7.10703 26.7251 7.32083C26.6139 7.75698 26.8363 7.54318 26.8363 7.54318C28.2559 6.99585 29.6756 6.78205 31.0866 6.78205C35.2344 6.78205 37.9539 8.52666 37.9539 12.777V22.3724C37.9539 22.3724 37.9539 22.6974 38.0651 22.6974V22.6888ZM38.5013 8.0734C41.3405 7.31227 43.7351 5.45648 44.9324 2.83956C44.9324 2.83956 44.9324 2.72838 45.1547 2.72838C45.3771 2.72838 46.7882 3.05336 47.0105 3.05336C47.2329 3.16454 47.1217 3.27571 47.1217 3.27571C47.0105 4.14802 46.8994 5.1315 46.8994 5.89264V7.2011C46.8994 7.42345 47.1217 7.31227 47.1217 7.31227H50.0636C50.286 7.31227 50.1748 7.53463 50.1748 7.53463C50.1748 7.53463 49.7386 9.71539 49.7386 9.93775C49.6275 10.1515 49.5248 10.1515 49.5248 10.1515H47.1217C46.8994 10.1515 46.8994 10.2627 46.8994 10.2627V20.4054C46.8994 21.6027 47.8828 21.8251 48.4302 21.8251C48.9775 21.8251 49.0887 21.8251 49.5248 21.6027C49.5248 21.6027 49.7386 21.3889 49.7386 21.6027C49.8498 21.8251 50.3971 23.2362 50.4998 23.4585C50.6109 23.5697 50.3886 23.6723 50.3886 23.6723C48.0966 25.3058 47.8828 25.4169 44.8298 25.4169C41.4517 25.4169 40.2459 23.7835 40.2459 20.7304V10.2542C40.2459 10.2542 40.2459 10.143 40.0235 10.143H38.4927C38.4927 10.143 38.3815 10.143 38.3815 9.9292V8.29576C38.3815 8.18458 38.4927 8.0734 38.4927 8.0734H38.5013ZM88.2313 16.0353C88.2313 10.3653 92.704 6.76494 98.5964 6.76494C104.489 6.76494 109.064 10.3653 109.064 16.0353C109.064 21.7053 104.48 25.4169 98.5964 25.4169C92.7126 25.4169 88.2313 21.9277 88.2313 16.0353ZM94.996 13.5296C94.996 16.1465 96.0907 22.6888 99.7937 22.6888C101.761 22.6888 102.299 20.6192 102.299 18.6523C102.299 16.0353 101.205 9.49304 97.3906 9.49304C94.9874 9.49304 94.9874 12.2211 94.9874 13.5296H94.996ZM129.786 24.8696H120.626C120.626 24.8696 120.515 24.8696 120.515 24.7584V22.9026C120.515 22.6803 120.738 22.6803 120.738 22.6803H121.832C121.943 22.6803 121.943 22.5691 121.943 22.5691V12.6487C121.943 11.5541 120.96 11.1179 119.976 11.1179C118.779 11.1179 117.907 11.6653 117.035 12.4264C117.035 12.4264 116.923 12.5376 116.923 12.6487V22.5777C116.923 22.5777 116.923 22.6888 117.035 22.6888H118.232C118.232 22.6888 118.343 22.6888 118.343 22.9112V24.767C118.343 24.8782 118.232 24.8782 118.232 24.8782H109.073C109.073 24.8782 108.961 24.9893 108.961 24.6644V22.9197C108.961 22.6974 109.073 22.6974 109.073 22.6974H110.056C110.278 22.6974 110.167 22.5862 110.167 22.5862V10.9041C110.167 10.9041 110.278 10.6818 110.056 10.6818C109.731 10.793 109.073 11.0068 109.073 11.0068C109.073 11.0068 108.961 11.1179 108.961 10.8956V9.03978C108.961 8.82598 109.073 8.92861 109.073 8.92861L116.812 6.85902C116.812 6.85902 117.035 6.74784 117.035 6.97019V9.47594C117.035 9.80091 117.146 9.58711 117.146 9.58711C119.002 8.16748 120.857 6.74784 123.363 6.74784C128.05 6.74784 128.708 9.91209 128.708 11.8705V22.5605C128.708 22.5605 128.597 22.6717 128.819 22.6717H129.803C129.803 22.6717 129.914 22.6717 129.914 22.8941V24.6387C129.914 24.9637 129.803 24.8525 129.803 24.8525L129.786 24.8696ZM139.056 6.87612L131.316 8.94571C131.316 8.94571 131.205 8.94571 131.205 9.16807V10.9127C131.205 11.1265 131.428 11.0239 131.428 11.0239C131.428 11.0239 131.975 10.9127 132.411 10.8015C132.633 10.8015 132.522 11.0239 132.522 11.1265V22.5777C132.522 22.5777 132.633 22.6888 132.411 22.6888H131.316C131.316 22.6888 131.094 22.6888 131.094 22.9112V24.767C131.094 24.9893 131.316 24.8782 131.316 24.8782H140.365C140.587 24.8782 140.476 24.6644 140.476 24.6644V22.9197C140.476 22.6974 140.253 22.6974 140.253 22.6974H139.381C139.167 22.6974 139.27 22.5862 139.27 22.5862V6.97874C139.27 6.76494 139.056 6.86757 139.056 6.86757V6.87612ZM136.328 1.41992C137.859 1.41992 139.603 1.85608 139.603 3.71187C139.603 5.89264 136.661 6.76494 134.806 6.76494C133.275 6.76494 132.3 6.00381 132.3 4.473C132.3 2.72838 134.703 1.41992 136.337 1.41992H136.328ZM61.4036 15.5992H60.5313C58.6755 15.5992 57.367 16.9077 57.367 18.6523C57.367 20.0719 57.8032 21.7053 59.5478 21.7053C61.2924 21.7053 61.6174 20.3969 61.6174 19.0884V15.813C61.6174 15.813 61.6174 15.5906 61.3951 15.5906L61.4036 15.5992ZM68.4932 22.6888H69.2544C69.5794 22.6888 69.5793 22.9112 69.5793 22.9112V24.6558C69.5793 24.9808 69.2544 24.8696 69.2544 24.8696H62.2759C62.2759 24.8696 62.1647 24.8696 62.0536 24.6558C61.9424 24.2196 61.8312 23.7835 61.8312 23.4585C61.72 23.0224 61.5062 23.4585 61.5062 23.4585C59.9754 24.5532 58.4532 25.4255 56.4862 25.4255C53.1081 25.4255 50.5938 23.3559 50.5938 19.9693C50.5938 15.8215 53.3219 13.427 56.5888 13.427L61.4977 13.3158C61.4977 13.3158 61.6089 13.3158 61.6089 13.102V12.5547C61.6089 11.135 60.8477 10.4851 59.2057 10.4851C57.1361 10.4851 56.1527 11.2462 55.1692 12.452C55.1692 12.452 55.058 12.5632 54.9468 12.452C54.733 12.452 52.8772 11.7935 52.8772 11.7935C52.8772 11.7935 52.7661 11.7935 52.8772 11.5712C52.9884 11.3488 55.058 6.11499 55.058 6.11499C55.058 6.11499 55.058 5.89264 55.2803 6.00381C55.5027 6.11499 56.9138 6.55114 57.1361 6.55114C57.3585 6.66232 57.2473 6.87612 57.2473 6.87612C57.2473 6.87612 57.2473 7.09847 57.1361 7.31227C56.9223 7.74843 57.2473 7.53463 57.2473 7.53463C58.667 6.9873 60.0866 6.7735 61.4977 6.7735C65.6454 6.7735 68.365 8.51811 68.365 12.7685V22.3639C68.365 22.3639 68.2538 22.6888 68.4761 22.6888H68.4932ZM75.6941 11.4515C75.6941 13.4184 76.7887 18.7549 79.5083 18.7549C80.9279 18.7549 81.4752 18.0964 81.4752 16.3518C81.4752 14.3848 80.2779 9.04834 77.5498 9.04834C76.2414 9.04834 75.6941 9.70684 75.6941 11.4515ZM78.5333 25.7419C78.2084 26.0669 77.986 27.2727 77.986 28.0338C77.986 28.9062 78.4222 29.8896 79.5168 29.8896C80.3891 29.8896 80.9364 29.4535 80.9364 28.5812C80.9364 26.9477 79.953 26.4004 78.7557 25.6393C78.7557 25.6393 78.6445 25.6393 78.5333 25.7505V25.7419ZM151.277 15.5992H150.405C148.549 15.5992 147.24 16.9077 147.24 18.6523C147.24 20.0719 147.677 21.7053 149.421 21.7053C151.166 21.7053 151.491 20.3969 151.491 19.0884V15.813C151.491 15.813 151.491 15.5906 151.268 15.5906L151.277 15.5992ZM158.367 22.6888H159.239C159.461 22.6888 159.461 22.9112 159.461 22.9112V24.6558C159.461 24.9808 159.136 24.8696 159.136 24.8696H152.158C152.158 24.8696 152.047 24.8696 151.944 24.6558C151.833 24.2196 151.722 23.7835 151.722 23.4585C151.61 23.0224 151.397 23.4585 151.397 23.4585C149.866 24.5532 148.344 25.4255 146.377 25.4255C142.999 25.4255 140.484 23.3559 140.484 19.9693C140.484 15.8215 143.212 13.427 146.479 13.427L151.388 13.3158C151.388 13.3158 151.499 13.3158 151.499 13.102V12.5547C151.499 11.135 150.738 10.4851 149.096 10.4851C147.027 10.4851 146.043 11.2462 145.06 12.452C145.06 12.452 144.948 12.5632 144.837 12.452C144.615 12.452 142.87 11.7935 142.87 11.7935C142.87 11.7935 142.648 11.7935 142.759 11.5712C142.87 11.3488 144.94 6.11499 144.94 6.11499C144.94 6.11499 144.94 5.89264 145.162 6.00381C145.385 6.11499 146.796 6.55114 147.018 6.55114C147.24 6.66232 147.24 6.87612 147.24 6.87612C147.24 6.87612 147.129 7.09847 147.018 7.31227C146.796 7.74843 147.129 7.53463 147.129 7.53463C148.549 6.9873 149.968 6.7735 151.38 6.7735C155.527 6.7735 158.247 8.51811 158.247 12.7685V22.3639C158.247 22.3639 158.247 22.6888 158.358 22.6888H158.367ZM8.07312 11.0153V19.8496C8.07312 21.3804 8.62045 22.6888 10.3651 22.6888C12.5458 22.6888 13.5293 21.3804 13.5293 17.3438C13.5293 10.9127 10.2539 10.5792 9.16778 10.5792L8.29547 10.6903C8.29547 10.6903 8.07312 10.8015 8.07312 11.0153ZM8.1843 8.39838C9.81773 7.4149 11.0236 6.76494 12.657 6.76494C16.9074 6.76494 20.294 10.2542 20.294 15.3768C20.294 20.4995 17.1297 25.4084 11.6821 25.4084C10.5874 25.4084 9.17633 25.2972 8.19285 24.7499C8.19285 24.7499 8.08167 24.7499 8.08167 24.861V28.0253C8.08167 28.0253 8.08167 28.2477 8.30402 28.2477H10.271C10.271 28.2477 10.4933 28.2477 10.4933 28.47V30.2146C10.4933 30.3258 10.271 30.437 10.271 30.437H0.324977C0.324977 30.437 0 30.437 0 30.2146V28.47C0 28.2477 0.222353 28.2477 0.222353 28.2477H1.09466C1.31701 28.2477 1.31701 28.0253 1.31701 28.0253V10.9041C1.31701 10.6818 1.09466 10.793 1.09466 10.793L0.222353 11.0153C0.222353 11.0153 0 11.0153 0 10.793V9.07399V9.04834C0 8.83454 0.222353 8.83454 0.222353 8.83454L7.85932 6.86757C7.85932 6.86757 8.07312 6.75639 8.07312 6.97874V8.2872C8.07312 8.50956 8.1843 8.39838 8.1843 8.39838Z" fill="#231F20"/>
<path fill-rule="evenodd" clip-rule="evenodd" d="M155.203 2.40312C155.203 1.09466 156.298 0 157.606 0C158.915 0 160.009 1.09466 160.009 2.40312C160.009 3.82276 158.915 4.90887 157.606 4.90887C156.298 4.90887 155.203 3.81421 155.203 2.40312ZM159.676 2.40312C159.676 1.30846 158.804 0.333529 157.606 0.333529C156.409 0.333529 155.425 1.31701 155.425 2.40312C155.425 3.60041 156.409 4.58389 157.606 4.58389C158.804 4.58389 159.676 3.60041 159.676 2.40312ZM158.804 3.82276H158.367L157.606 2.5143H157.059V3.82276H156.734V1.09466H157.829C158.051 1.09466 158.376 1.09466 158.487 1.20584C158.709 1.31701 158.812 1.64199 158.812 1.86434C158.812 2.3005 158.487 2.52285 157.94 2.52285L158.812 3.83131L158.804 3.82276ZM157.495 2.29195C157.931 2.29195 158.479 2.40312 158.479 1.85579C158.479 1.41964 158.154 1.30846 157.82 1.30846H157.059V2.29195H157.495Z" fill="#231F20"/>
</g>
<defs>
<clipPath id="clip0_370_4251">
<rect width="160" height="31.5228" fill="white"/>
</clipPath>
</defs>
</svg>
