<svg width="160" height="59" viewBox="0 0 160 59" fill="none" xmlns="http://www.w3.org/2000/svg">
<g clip-path="url(#clip0_370_4247)">
<path d="M86.2954 47.029L88.1894 41.6939L90.1367 47.029H86.2954ZM63.7813 38.6529H66.7422C68.076 38.6529 68.7963 39.5065 68.7963 40.4668C68.7963 41.4271 68.076 42.2808 66.7422 42.2808H63.7813V38.6529ZM156.185 31.6639C154.078 31.6639 152.371 33.3711 152.371 35.4785V43.2411L145.889 33.5845C145.168 32.4908 144.128 31.6372 142.554 31.6372C140.447 31.6372 138.74 33.3178 138.74 35.4251V53.2177C138.74 55.3251 140.447 57.0323 142.554 57.0323C144.662 57.0323 146.369 55.3251 146.369 53.2177V45.2684L152.851 55.085C153.571 56.1787 154.798 57.0323 156.239 57.0323C158.319 57.0323 160 55.3518 160 53.2978V35.4518C160 33.3444 158.319 31.6372 156.212 31.6372C156.212 31.6639 156.185 31.6639 156.185 31.6639ZM134.285 38.9463C136.285 38.9997 137.966 37.3991 138.019 35.3985C138.073 33.3978 136.472 31.7172 134.471 31.6639H123.935C121.827 31.6639 120.12 33.3444 120.12 35.4518V53.2444C120.12 55.3518 121.801 57.059 123.908 57.059H134.285C136.285 57.1124 137.966 55.5118 138.019 53.5112C138.073 51.5105 136.472 49.8299 134.471 49.7766H127.829V47.4025H133.111C134.872 47.4558 136.339 46.042 136.365 44.3081C136.392 42.5742 135.005 41.0804 133.271 41.0537H127.829V38.9196H134.285V38.9463ZM115.585 31.6639C113.825 31.6639 112.491 32.5709 111.957 34.1447L107.636 45.5085L103.261 34.1714C102.728 32.5975 101.367 31.6906 99.6332 31.6906C96.8323 31.6906 95.1517 34.4915 96.2454 37.2658L103.048 53.938C103.768 55.7519 105.182 57.0857 107.663 57.0857C110.143 57.0857 111.477 55.7519 112.224 53.938L119 37.2658C120.147 34.5448 118.439 31.6639 115.585 31.6639ZM92.6709 34.7849C91.8706 32.971 90.4835 31.6906 88.2427 31.6906C86.002 31.6906 84.6149 32.971 83.8146 34.7849L76.6122 51.5905C75.5185 54.0714 77.039 57.1124 80.1334 57.1124C81.7339 57.1391 83.1477 56.1254 83.6545 54.6315L84.1347 53.1644H92.2708L92.8043 54.6849C93.3644 56.1787 94.8049 57.1391 96.3788 57.1124C99.3398 57.1124 100.86 54.0714 99.8466 51.7239L92.6709 34.7849ZM72.104 47.029C74.7182 45.7486 76.4788 43.4011 76.4788 40.12C76.4788 34.7849 72.104 31.6906 66.9557 31.6906H59.9133C57.8059 31.6906 56.0987 33.3711 56.0987 35.4785V53.2711C56.0987 55.4051 57.8326 57.1124 59.9667 57.1124C62.1007 57.1124 63.8079 55.3785 63.8079 53.2711V48.3094L68.7162 55.4051C69.4365 56.4722 70.6636 57.1124 71.944 57.1124C75.2784 57.1124 76.8523 53.5378 75.0383 51.057L72.104 47.029ZM92.4308 32.0373C92.4041 32.9176 93.1244 33.6646 94.0047 33.6646C94.885 33.6912 95.6319 32.971 95.6319 32.0907C95.6319 31.2104 94.9383 30.4635 94.058 30.4635H94.0047C93.1244 30.4902 92.4308 31.1837 92.4308 32.0373ZM82.4008 30.4635C81.5205 30.4635 80.8269 31.1571 80.8269 32.0373C80.8269 32.9176 81.5205 33.6112 82.4008 33.6112C83.2811 33.6112 83.9747 32.9176 83.9747 32.0373C83.948 31.1837 83.2544 30.4902 82.4008 30.4635ZM10.0834 28.2761C8.5095 27.8493 6.85562 27.6626 5.22841 27.6626L5.17506 27.6092C5.33511 26.7823 5.70857 26.0087 6.26876 25.3685C7.81594 25.8486 9.14972 26.8356 10.0834 28.1694V28.2761ZM94.0047 20.2734L95.8986 14.9383L97.8459 20.2734H94.0047ZM130.283 30.3568H140.1C142.101 30.4101 143.781 28.8096 143.835 26.8089C143.888 24.8083 142.287 23.1277 140.287 23.0744H134.178V8.74958C134.178 6.61554 132.444 4.9083 130.31 4.9083C128.176 4.9083 126.469 6.64221 126.469 8.74958V26.5155C126.442 28.6229 128.149 30.3301 130.257 30.3568C130.257 30.3568 130.266 30.3568 130.283 30.3568ZM112.384 30.3568H122.227C124.228 30.3034 125.829 28.6496 125.775 26.6222C125.722 24.6749 124.175 23.101 122.227 23.0744H116.279V8.74958C116.279 6.61554 114.545 4.9083 112.411 4.9083C110.277 4.9083 108.57 6.64221 108.57 8.74958V26.5155C108.57 28.6229 110.25 30.3301 112.357 30.3568C112.357 30.3568 112.366 30.3568 112.384 30.3568ZM87.8159 30.3568C89.4165 30.3835 90.8303 29.3698 91.3371 27.876L91.8173 26.4088H99.9533L100.487 27.9293C101.047 29.4231 102.487 30.3835 104.061 30.3568C107.022 30.3568 108.543 27.3158 107.529 24.9683L100.38 8.05602C99.6065 6.24208 98.1927 4.96165 95.952 4.96165C93.7112 4.96165 92.3241 6.24208 91.5238 8.05602L84.2948 24.8616C83.2011 27.3158 84.7216 30.3568 87.8159 30.3568ZM69.9166 21.9807C67.916 21.9807 66.3421 23.6879 66.3421 25.6085C66.3421 26.6222 66.7156 27.5825 67.4358 28.2761C68.8229 29.6632 71.1971 30.6502 74.7182 30.6502C80.6669 30.6502 83.948 26.5155 83.948 21.7406V8.74958C83.948 6.64221 82.2674 4.93498 80.16 4.93498H80.1334C77.9993 4.9083 76.2654 6.61554 76.2387 8.74958V21.6072C76.2387 22.8076 75.5185 23.4211 74.5315 23.4211C73.5445 23.4211 73.011 23.1277 71.9706 22.5675C71.3571 22.1674 70.6369 21.954 69.9166 21.9807ZM59.8866 30.3301C61.994 30.3568 63.7279 28.7029 63.7813 26.5689V21.2071H69.3031C71.117 21.2071 72.6109 19.7399 72.6109 17.8993C72.6109 16.0587 71.1437 14.5915 69.3031 14.5915H63.7813V12.1641H70.2634C72.2641 12.1107 73.8646 10.4568 73.8113 8.42948C73.7579 6.48216 72.2107 4.9083 70.2634 4.88163H59.8866C57.7793 4.88163 56.072 6.56219 56.072 8.66956V26.4622C56.072 28.5695 57.7526 30.2768 59.86 30.3034C59.8777 30.339 59.8866 30.3479 59.8866 30.3301ZM101.714 6.85562C102.594 6.85562 103.341 6.16205 103.341 5.28176C103.341 4.40147 102.621 3.68123 101.741 3.68123C100.86 3.68123 100.14 4.40147 100.14 5.28176C100.14 6.16205 100.834 6.85562 101.714 6.85562ZM90.11 6.85562C90.9637 6.82894 91.6839 6.13538 91.6839 5.28176C91.6839 4.42814 90.9637 3.68123 90.0834 3.68123C89.2031 3.68123 88.4828 4.40147 88.4828 5.28176C88.5095 6.16205 89.2297 6.8823 90.11 6.85562ZM27.4492 3.89463C27.3958 2.72091 27.2624 1.46716 27.1557 0H27.1024L24.3014 3.62788H23.4478C18.2194 3.62788 12.5909 4.72157 7.92264 7.38913L7.97599 7.52251C10.1634 6.72224 12.4842 6.32211 14.8316 6.32211C17.1791 6.32211 19.2864 6.72224 21.3938 7.52251L20.06 9.2831C18.1394 8.5095 16.112 8.13605 14.058 8.13605C11.1504 8.13605 8.2961 8.93631 6.29543 10.1367L0.96032 2.93431H0.906969C0.373458 9.30977 0 16.4055 0 20.0333C0 28.2761 1.94732 29.93 4.18806 31.7973C5.94865 33.2644 7.94932 34.945 9.22974 40.2801C10.03 43.5612 10.5635 44.2814 12.5108 44.2814C14.138 44.2814 14.885 43.6679 15.6052 40.8936C16.9923 35.6119 19.9 32.9443 22.5942 30.5969C25.6352 27.876 28.4095 25.5552 28.4095 20.3535C28.4095 17.2591 27.9827 14.6449 27.0757 11.4438C29.3164 13.9246 30.7036 17.2057 30.7036 21.1537C30.7036 25.1017 29.1831 28.1427 24.2748 32.4375C20.5135 35.7719 19.3665 37.1591 17.7926 42.2007C16.6455 45.8286 14.5649 49.6699 8.88296 49.6699C7.04235 49.6699 5.22841 49.3231 3.54785 48.6295L3.4945 48.7629C8.53618 54.9517 16.4055 58.5262 24.915 58.5262C40.5735 58.5262 52.2307 46.5222 52.2307 30.9703C52.124 16.7523 42.3074 5.57519 27.4492 3.89463Z" fill="black"/>
</g>
<defs>
<clipPath id="clip0_370_4247">
<rect width="160" height="58.5262" fill="white"/>
</clipPath>
</defs>
</svg>
