<svg width="140" height="89" viewBox="0 0 140 89" fill="none" xmlns="http://www.w3.org/2000/svg">
<g clip-path="url(#clip0_370_4260)">
<path d="M63.0514 0H89.1139L81.7723 12.5561L68.8518 12.5709C67.4337 12.5709 66.0796 13.3932 65.3755 14.6193L60.1856 23.6646C59.4495 24.9473 59.4741 26.6067 60.2152 27.8844L64.6861 35.588C65.6881 37.3138 66.1362 39.6133 65.1441 41.3392L58.4475 52.9696L47.8289 34.6549C45.3054 30.3046 45.2783 24.6051 47.7846 20.2424L57.1106 3.98841C58.4499 1.65445 60.1684 0 63.0514 0ZM77.2078 65.9048L51.1452 65.794L58.541 53.2675L71.4615 53.3093C72.8821 53.3142 74.2386 52.4993 74.9477 51.2757L80.1769 42.2526C80.918 40.9748 80.9007 39.3129 80.1646 38.0327L75.7281 30.3095C74.7335 28.5812 74.2952 26.2792 75.2973 24.5558L82.0431 12.955L92.5804 31.314C95.0842 35.6766 95.0867 41.3736 92.5631 45.7264L83.1633 61.9435C81.8141 64.2725 80.0883 65.9171 77.2053 65.9048H77.2078ZM89.0524 76.7031L97.3222 76.7228L90.3449 88.8727L99.73 88.8628L106.675 76.7228L113.409 76.7031L115.034 73.8373L90.7733 73.8324L89.0524 76.7031ZM115.58 76.7228L121.861 76.7006L115.024 88.8505L124.49 88.8407L131.3 76.7006L137.987 76.7228L139.582 73.857L117.267 73.8521L115.585 76.7228H115.58ZM69.098 77.7125L65.4715 84.0152C64.6763 85.3988 65.048 86.002 66.6163 85.9946L72.237 85.97C72.9461 85.9675 73.4163 85.3643 73.7462 84.7907L77.3013 78.6062C78.0374 77.3284 77.6509 76.708 76.1762 76.7056L71.299 76.7006C70.2748 76.7006 69.6716 76.7228 69.1005 77.7125H69.098ZM65.4961 73.8201H84.7808C87.0803 73.8201 88.4319 75.7872 87.2329 77.8553L82.4395 86.1128C80.9967 88.5994 79.1281 88.8727 76.3535 88.8727H58.1791C55.7984 88.8727 54.331 86.9769 55.5916 84.7907L59.223 78.4954C59.5726 77.8898 59.9123 77.2669 60.2989 76.6809C61.584 74.736 63.1031 73.8201 65.4961 73.8201ZM41.7134 73.8201L59.2353 73.8324L57.6202 76.7031H46.9451C46.3099 76.7031 45.6476 76.9419 45.3177 77.5131L41.6838 83.8059C40.9625 85.0566 40.8074 85.9897 42.6489 85.9921L52.2433 85.9971L50.6307 88.8604L34.3988 88.8776C31.5084 88.8801 30.4252 86.9055 31.9147 84.3451L36.3979 76.6415C37.5895 74.5932 39.3203 73.8201 41.7109 73.8226L41.7134 73.8201ZM13.1716 73.8152L35.0808 73.8349L33.4583 76.7228H16.4805C15.9758 77.486 15.2766 78.2271 15.4662 79.1355C15.5991 79.7683 16.4436 79.7412 16.9901 79.7412H27.4905C29.8737 79.7412 31.2032 81.7723 29.9672 83.9044L27.099 88.853H0L1.66676 86.0094L19.329 85.9921C19.6762 85.2905 20.2744 84.6504 20.3114 83.8404C20.3409 83.1978 19.5654 82.9836 19.041 82.9836L9.50325 82.9787C6.74337 82.9787 4.274 82.4617 5.53207 79.3965C5.76596 78.8278 6.12541 78.2985 6.41346 77.7667C6.77045 77.1265 7.16683 76.479 7.63953 75.9054C9.12657 74.1008 10.9017 73.8176 13.1716 73.8201V73.8152Z" fill="black"/>
</g>
<defs>
<clipPath id="clip0_370_4260">
<rect width="139.577" height="88.88" fill="white"/>
</clipPath>
</defs>
</svg>
