<svg width="380" height="161" viewBox="0 0 380 161" fill="none" xmlns="http://www.w3.org/2000/svg">
<path d="M0 139.99V80.5646H13.6879C23.7034 80.5646 28.7112 86.3789 28.7112 98.0076C28.7112 101.512 28.1677 104.49 27.0833 106.939C25.9989 109.388 24.0909 111.362 21.3664 112.865L30.5461 139.99H21.5321L13.6026 114.617H8.51197V139.99H0ZM8.51197 88.577V107.104H13.354C14.8551 107.104 16.0516 106.895 16.9435 106.478C17.833 106.061 18.5299 105.464 19.0295 104.685C19.4754 103.907 19.78 102.947 19.9482 101.804C20.1163 100.664 20.1992 99.343 20.1992 97.8395C20.1992 96.3359 20.1163 95.0152 19.9482 93.8747C19.78 92.7343 19.4462 91.7473 18.9466 90.9115C17.889 89.3543 15.8859 88.5745 12.9373 88.5745H8.51441L8.51197 88.577Z" fill="#92E596"/>
<path d="M44.234 139.99L57.5052 80.5646H64.5989L77.87 139.99H69.3581L66.8554 127.221H55.2535L52.7508 139.99H44.234ZM65.2666 119.208L61.0947 97.6762H60.9265L56.7546 119.208H65.269H65.2666Z" fill="#92E596"/>
<path d="M94.8112 139.99V80.5646H103.326V139.99H94.8112Z" fill="#92E596"/>
<path d="M123.773 139.99V80.5646H131.951L144.803 116.369H144.972V80.5646H153.484V139.99H145.471L132.451 104.268H132.285V139.99H123.771H123.773Z" fill="#92E596"/>
<path d="M181.612 139.99V114.868L169.928 80.5646H178.942L185.784 104.185H185.952L192.795 80.5646H201.809L190.124 114.868V139.99H181.61H181.612Z" fill="#92E596"/>
<path d="M218.584 139.99V80.5646H231.188C236.084 80.5646 239.797 81.9 242.329 84.5708C244.861 87.2416 246.126 91.026 246.126 95.9217V123.714C246.126 129.277 244.776 133.384 242.078 136.025C239.378 138.669 235.499 139.99 230.435 139.99H218.584ZM227.099 88.577V131.978H231.022C233.415 131.978 235.111 131.381 236.113 130.184C237.114 128.988 237.616 127.111 237.616 124.55V95.9217C237.616 93.5847 237.144 91.7766 236.198 90.4972C235.25 89.2179 233.527 88.577 231.022 88.577H227.099Z" fill="#92E596"/>
<path d="M261.817 139.99L275.088 80.5646H282.182L295.453 139.99H286.939L284.436 127.221H272.834L270.331 139.99H261.817ZM282.849 119.208L278.678 97.6762H278.512L274.34 119.208H282.852H282.849Z" fill="#92E596"/>
<path d="M315.484 139.99V114.868L303.799 80.5646H312.813L319.656 104.185H319.822L326.664 80.5646H335.678L323.994 114.868V139.99H315.482H315.484Z" fill="#92E596"/>
<path d="M380 97.6738H371.488V95.7535C371.488 93.8065 371.03 92.1226 370.111 90.7043C369.192 89.2861 367.65 88.577 365.479 88.577C364.311 88.577 363.363 88.8011 362.642 89.2447C361.918 89.6906 361.334 90.2462 360.89 90.9139C360.444 91.6377 360.139 92.4589 359.971 93.3752C359.803 94.2914 359.72 95.254 359.72 96.2555C359.72 97.4228 359.762 98.3975 359.845 99.1773C359.927 99.9571 360.137 100.652 360.471 101.263C360.805 101.877 361.292 102.404 361.931 102.85C362.569 103.296 363.446 103.742 364.56 104.185L371.069 106.773C372.96 107.497 374.49 108.345 375.66 109.32C376.827 110.294 377.746 111.42 378.414 112.699C379.025 114.035 379.442 115.551 379.666 117.249C379.888 118.948 380 120.88 380 123.049C380 125.554 379.749 127.876 379.249 130.018C378.75 132.16 377.941 133.983 376.83 135.484C375.662 137.044 374.13 138.267 372.239 139.157C370.345 140.046 368.037 140.492 365.31 140.492C363.251 140.492 361.331 140.129 359.552 139.408C357.771 138.686 356.24 137.682 354.961 136.403C353.682 135.124 352.666 133.635 351.915 131.939C351.164 130.242 350.789 128.39 350.789 126.387V123.217H359.301V125.888C359.301 127.445 359.759 128.851 360.678 130.104C361.597 131.356 363.139 131.982 365.31 131.982C366.756 131.982 367.884 131.773 368.69 131.356C369.497 130.939 370.123 130.342 370.569 129.563C371.015 128.785 371.278 127.852 371.361 126.768C371.444 125.683 371.486 124.472 371.486 123.137C371.486 121.579 371.429 120.3 371.32 119.299C371.208 118.297 370.986 117.49 370.652 116.879C370.262 116.267 369.748 115.768 369.107 115.375C368.466 114.988 367.618 114.569 366.561 114.123L360.468 111.62C356.796 110.116 354.335 108.128 353.082 105.652C351.83 103.176 351.203 100.074 351.203 96.3457C351.203 94.1208 351.508 92.0056 352.122 90.0025C352.734 87.9994 353.653 86.2766 354.876 84.8291C356.043 83.384 357.532 82.2289 359.34 81.3663C361.148 80.5036 363.305 80.0723 365.808 80.0723C367.92 80.0723 369.855 80.4622 371.607 81.2396C373.359 82.0194 374.875 83.0477 376.157 84.3271C378.716 86.9979 379.995 90.0586 379.995 93.5067V97.6787L380 97.6738Z" fill="#92E596"/>
<path fill-rule="evenodd" clip-rule="evenodd" d="M60.9753 72.6951C67.0578 71.9007 76.3422 69.922 76.9368 69.4273C116.036 37.2801 72.3531 87.1043 115.296 51.9549C133.618 36.9609 127.066 43.2821 141.46 55.6029C146.548 59.9674 152.053 48.4727 146.819 39.2832C146.665 39.0176 157.585 25.9511 157.741 25.8464C157.609 24.8472 161.983 47.4175 161.757 31.7874C161.757 31.6753 164.91 20.8045 166.913 20.6753C171.244 20.3975 165.086 16.5205 172.528 11.8685C174.319 10.7524 176.79 5.08182 177.226 3.97305C177.299 4.08514 188.609 14.2225 190.327 16.306C192.193 18.5626 202.111 20.8678 201.743 28.7925C201.724 29.2312 205.396 37.1437 205.162 41.3546C204.965 44.9587 214.956 49.2549 218.616 58.3152C223.307 69.9268 217.349 47.2445 222.147 54.5551C226.051 60.5156 228.805 58.359 235.353 68.0334C236.076 69.0934 237.882 71.5961 239.015 72.6927H239.963C239.888 72.1614 239.566 71.1818 238.896 69.5978C237.809 67.0269 236.639 57.4939 235.219 56.6167C232.777 55.118 223.368 49.0039 223.4 47.0325C223.553 37.5774 235.701 53.7753 232.492 47.1007C226.341 34.312 229.039 42.6193 225.617 40.7405C227.174 38.7739 226.119 37.5043 226.553 36.3078C228.905 35.5256 229.307 36.6587 223.858 31.4706C218.063 25.9609 225.608 23.4339 222.457 16.4864C221.109 13.5231 226.046 13.8058 229.38 16.5107C231.091 17.9046 243.672 23.4387 251.916 26.8406C258.454 34.4777 266.186 39.5732 275.113 42.1319C268.304 38.3158 262.719 34.0635 258.357 29.3676C258.669 29.4724 258.895 29.5333 259.017 29.5577C268.674 31.1417 266.276 32.9108 272.018 36.1226C275.705 36.6222 283.383 45.7994 293.879 48.4556C299.43 49.8665 305.164 59.826 311.149 64.0978C322.49 72.1785 314.751 68.0358 327.149 71.6546C328.37 72.0128 329.403 72.3564 330.315 72.6902H334.667C327.956 70.3923 323.762 64.6413 318.971 62.9818C309.536 59.7285 304.735 52.6957 298.633 45.7994C292.19 38.5132 283.042 39.3027 279.699 35.2551C277.401 32.4698 263.971 25.3249 260.289 24.1186C260.196 24.0333 259.958 23.9822 259.804 23.8774C259.302 23.5386 259.058 23.5386 258.693 23.3364C257.852 22.8563 257.601 23.3486 256.692 23.3291C256.351 23.3291 255.201 22.6029 255.164 22.503C255.064 22.4469 254.618 22.2617 254.555 22.213C253.982 21.7329 252.479 20.6656 251.77 20.5925C251.265 20.5437 250.373 19.9394 250.005 19.8224C249.026 19.5008 248.733 18.7673 247.332 18.5284C246.236 18.3432 244.825 17.9802 243.867 17.4002C243.879 17.2832 232.216 14.0227 231.583 13.857C231.468 13.8326 231.2 13.7205 230.857 13.567C228.415 10.8231 224.452 10.2626 221.38 8.5373C219.964 7.74775 214.359 10.7378 212.38 12.0196C211.342 12.697 210.787 12.6848 210.107 13.2575C209.69 13.6084 206.715 14.9219 206.234 14.5027C205.815 14.1323 206.091 14.2615 205.669 14.1713C203.932 13.7887 204.307 14.7805 203.466 14.8975C201.968 15.1022 202.606 15.324 201.843 15.5872C200.583 16.038 201.363 16.3523 200.04 16.328C199.024 14.8 196.146 14.3736 194.798 12.3583C194.501 11.9075 191.981 9.65826 191.175 9.6412C190.158 9.62901 187.263 6.64629 185.641 6.11018C185.626 6.10287 183.735 4.77234 183.633 4.68705C183.618 4.67487 182.192 4.04615 181.812 3.70012C181.3 3.23224 179.463 2.47925 178.035 2.09179C177.409 1.72869 176.78 1.41921 176.186 1.27787C174.046 0.753948 173.822 -0.479106 172.279 0.198343C169.172 1.54837 169.864 0.975703 166.533 3.15182C166.219 3.10796 164.481 3.454 164.311 3.6197C163.421 4.47748 162.766 5.48147 161.774 5.46197C159.993 5.43029 160.56 5.82019 158.54 6.87292C156.832 7.77943 156.493 8.43739 154.624 9.21475C153.796 9.56565 151.836 11.4079 151.008 11.3226C150.511 11.6248 149.682 10.94 148.705 12.4436C148.527 12.7141 147.428 12.6848 146.405 13.9666C146.363 14.0227 145.315 14.5344 145.028 14.8293C143.263 16.635 144.214 15.5262 143.417 15.9746C142.296 16.6155 141.109 17.3173 139.915 17.7876C137.547 18.699 137.646 19.3838 136.506 20.0564C134.995 20.9507 134.898 21.4746 132.963 22.1448C131.92 22.5152 128.494 25.2079 127.363 25.4126C126.274 25.5978 122.267 29.3579 120.693 30.0402C120.569 30.1011 120.191 30.3862 120.084 30.4837C117.769 30.7615 116.984 32.3455 115.001 33.2934C114.094 33.7247 113.894 34.2852 112.776 34.5947C111.187 35.0212 108.887 37.3679 108.226 37.5896C106.888 38.0526 104.72 40.0801 103.489 39.9631C103.469 39.9558 99.7897 42.0271 99.6874 42.1758C99.585 42.3171 99.4559 42.3659 99.4608 42.5023C98.1059 43.5624 98.9831 41.7006 96.3879 44.7759C94.7259 46.7425 90.4176 48.0608 87.6761 51.1045C87.0669 51.7819 86.8061 50.1492 83.7893 54.6477C81.1087 58.6344 78.684 58.1251 75.3041 60.8227C72.7746 62.838 71.0786 61.968 67.2649 65.0141C64.6526 67.0976 61.7722 68.8838 58.8894 70.4191C57.7684 71.0234 56.8595 72.3174 55.7361 72.6878H60.9753V72.6951Z" fill="#92E596"/>
<path fill-rule="evenodd" clip-rule="evenodd" d="M372.95 158.508C250.917 161.749 128.642 161.749 6.59424 158.508C128.676 156.651 250.861 156.651 372.95 158.508Z" fill="#92E596"/>
</svg>
