<svg width="300" height="162" viewBox="0 0 300 162" fill="none" xmlns="http://www.w3.org/2000/svg">
<g clip-path="url(#clip0_390_2236)">
<path d="M0 110.515V63.6003H10.8062C18.7132 63.6003 22.6667 68.1906 22.6667 77.3711C22.6667 80.1376 22.2377 82.4886 21.3816 84.422C20.5255 86.3555 19.0191 87.9138 16.8682 89.1008L24.1154 110.515H16.9991L10.7389 90.484H6.71998V110.515H0ZM6.71998 69.9259V84.5528H10.5427C11.7277 84.5528 12.6723 84.3874 13.3765 84.0584C14.0787 83.7294 14.6289 83.2581 15.0233 82.6425C15.3753 82.0288 15.6158 81.2708 15.7486 80.3685C15.8813 79.4681 15.9467 78.4254 15.9467 77.2384C15.9467 76.0514 15.8813 75.0087 15.7486 74.1083C15.6158 73.2079 15.3523 72.4288 14.9579 71.7689C14.1229 70.5396 12.5415 69.9239 10.2137 69.9239H6.7219L6.71998 69.9259Z" fill="#92E596"/>
<path d="M34.9214 110.515L45.3986 63.6003H50.9989L61.4762 110.515H54.7562L52.7804 100.434H43.621L41.6452 110.515H34.9252H34.9214ZM51.5261 94.1086L48.2324 77.1095H48.0997L44.8061 94.1086H51.528H51.5261Z" fill="#92E596"/>
<path d="M74.8508 110.515V63.6003H81.5727V110.515H74.8508Z" fill="#92E596"/>
<path d="M97.7159 110.515V63.6003H104.172L114.319 91.8673H114.451V63.6003H121.171V110.515H114.846L104.567 82.3135H104.436V110.515H97.714H97.7159Z" fill="#92E596"/>
<path d="M143.378 110.515V90.6822L134.153 63.6003H141.27L146.672 82.2481H146.805L152.207 63.6003H159.323L150.098 90.6822V110.515H143.376H143.378Z" fill="#92E596"/>
<path d="M172.567 110.515V63.6003H182.517C186.382 63.6003 189.314 64.6545 191.313 66.7631C193.311 68.8716 194.31 71.8593 194.31 75.7243V97.6657C194.31 102.058 193.244 105.3 191.114 107.385C188.983 109.472 185.92 110.515 181.922 110.515H172.567ZM179.289 69.9259V104.189H182.386C184.275 104.189 185.614 103.718 186.405 102.774C187.196 101.829 187.592 100.348 187.592 98.3256V75.7243C187.592 73.8794 187.219 72.4519 186.472 71.4419C185.724 70.4318 184.364 69.9259 182.386 69.9259H179.289Z" fill="#92E596"/>
<path d="M206.698 110.515L217.175 63.6003H222.775L233.252 110.515H226.53L224.555 100.434H215.395L213.419 110.515H206.698ZM223.302 94.1086L220.009 77.1095H219.878L216.584 94.1086H223.304H223.302Z" fill="#92E596"/>
<path d="M249.066 110.515V90.6822L239.842 63.6003H246.958L252.36 82.2481H252.491L257.893 63.6003H265.009L255.784 90.6822V110.515H249.064H249.066Z" fill="#92E596"/>
<path d="M300 77.1076H293.28V75.5916C293.28 74.0544 292.918 72.7251 292.193 71.6054C291.468 70.4857 290.25 69.9259 288.536 69.9259C287.614 69.9259 286.866 70.1029 286.296 70.453C285.725 70.8051 285.263 71.2437 284.913 71.7708C284.561 72.3422 284.32 72.9906 284.188 73.7139C284.055 74.4373 283.99 75.1972 283.99 75.9879C283.99 76.9094 284.022 77.679 284.088 78.2946C284.153 78.9102 284.319 79.4585 284.582 79.9414C284.846 80.4262 285.23 80.8418 285.735 81.1938C286.239 81.5459 286.931 81.8979 287.81 82.2481L292.949 84.2912C294.442 84.8626 295.65 85.5321 296.573 86.3016C297.495 87.0711 298.22 87.96 298.747 88.97C299.23 90.0242 299.559 91.2209 299.736 92.5618C299.911 93.9027 300 95.4283 300 97.1405C300 99.1182 299.802 100.952 299.407 102.643C299.013 104.334 298.374 105.773 297.497 106.958C296.575 108.189 295.365 109.155 293.872 109.857C292.378 110.559 290.556 110.911 288.403 110.911C286.777 110.911 285.261 110.625 283.857 110.055C282.451 109.486 281.242 108.693 280.232 107.683C279.222 106.673 278.42 105.498 277.828 104.159C277.235 102.82 276.939 101.358 276.939 99.7762V97.2733H283.659V99.3818C283.659 100.611 284.02 101.721 284.746 102.71C285.471 103.699 286.689 104.193 288.403 104.193C289.544 104.193 290.434 104.028 291.071 103.699C291.708 103.37 292.202 102.899 292.555 102.283C292.907 101.669 293.114 100.932 293.18 100.076C293.245 99.2202 293.278 98.2641 293.278 97.2098C293.278 95.9805 293.234 94.9704 293.147 94.1797C293.059 93.389 292.884 92.7523 292.62 92.2694C292.312 91.7865 291.906 91.3921 291.4 91.0824C290.894 90.7765 290.225 90.4456 289.39 90.0935L284.58 88.1177C281.681 86.9307 279.738 85.3609 278.749 83.4062C277.76 81.4516 277.266 79.0026 277.266 76.0591C277.266 74.3026 277.506 72.6327 277.991 71.0513C278.474 69.4699 279.199 68.1098 280.165 66.967C281.087 65.8262 282.262 64.9143 283.689 64.2332C285.117 63.5522 286.82 63.2117 288.795 63.2117C290.463 63.2117 291.991 63.5195 293.374 64.1332C294.757 64.7488 295.954 65.5607 296.966 66.5707C298.986 68.6792 299.996 71.0956 299.996 73.8178V77.1114L300 77.1076Z" fill="#92E596"/>
<path d="M50.7397 143.613H55.5859C56.113 143.613 56.6209 143.663 57.1096 143.765C57.5982 143.898 58.0946 144.169 58.5967 144.579C59.018 144.888 59.3605 145.329 59.6221 145.904C59.8972 146.46 60.0338 147.116 60.0338 147.874C60.0338 148.896 59.6856 149.827 58.9873 150.668C58.2716 151.551 57.225 152.007 55.8475 152.03H52.7636V157.418H50.7397V143.615V143.613ZM52.7636 150.062H55.7687C56.5228 150.048 57.0884 149.808 57.4693 149.338C57.831 148.882 58.0119 148.374 58.0119 147.816C58.0119 147.353 57.9388 146.964 57.7906 146.647C57.6367 146.362 57.4232 146.137 57.1481 145.971C56.7306 145.698 56.2477 145.569 55.6956 145.581H52.7636V150.062Z" fill="#92E596"/>
<path d="M62.0635 147.589H63.9738V153.447C63.9738 154.111 64.1547 154.629 64.5144 155.002C64.8684 155.375 65.3225 155.562 65.8727 155.562C66.4229 155.562 66.8731 155.375 67.2213 155.002C67.5753 154.629 67.7542 154.111 67.7542 153.447V147.589H69.6646V157.416H67.7542V156.366H67.7176C67.0885 157.143 66.2671 157.53 65.2532 157.53C64.4644 157.516 63.7526 157.22 63.1177 156.641C62.4271 156.073 62.0769 155.237 62.0635 154.126V147.587V147.589Z" fill="#92E596"/>
<path d="M72.7541 154.415C73.5333 155.256 74.5375 155.675 75.7707 155.675C76.3228 155.675 76.773 155.566 77.1232 155.344C77.4733 155.123 77.6465 154.813 77.6465 154.417C77.6465 154.063 77.5426 153.817 77.3348 153.678C77.1212 153.534 76.8346 153.453 76.4806 153.442L74.7895 153.29C73.9873 153.215 73.3351 152.936 72.833 152.457C72.3193 151.989 72.0558 151.337 72.0423 150.496C72.0538 149.486 72.4001 148.728 73.0792 148.224C73.7391 147.72 74.5779 147.466 75.5937 147.466C76.0343 147.466 76.4287 147.495 76.7769 147.551C77.1251 147.614 77.4521 147.703 77.758 147.816C78.3448 148.063 78.8719 148.394 79.3375 148.809L78.1524 150.239C77.785 149.965 77.3964 149.738 76.9847 149.559C76.5806 149.4 76.1151 149.321 75.5879 149.321C74.9877 149.321 74.5683 149.432 74.3297 149.652C74.0777 149.873 73.9527 150.158 73.9527 150.504C73.9392 150.725 74.0354 150.918 74.2374 151.083C74.4221 151.266 74.7453 151.383 75.2109 151.433L76.7903 151.556C77.783 151.631 78.4987 151.941 78.9412 152.486C79.351 153.017 79.5568 153.69 79.5568 154.506C79.5453 155.46 79.1682 156.197 78.4295 156.714C77.6946 157.245 76.7557 157.516 75.613 157.53C74.0604 157.53 72.6618 156.943 71.4209 155.77L72.756 154.415H72.7541Z" fill="#92E596"/>
<path d="M81.7848 143.613H83.6952V148.63H83.7317C84.3608 147.853 85.1861 147.466 86.2058 147.466C86.9946 147.466 87.7141 147.753 88.3682 148.328C89.0146 148.909 89.3551 149.761 89.3859 150.885V157.418H87.4755V151.56C87.4755 150.871 87.2985 150.346 86.9426 149.986C86.5944 149.619 86.1442 149.436 85.594 149.436C85.0438 149.436 84.5917 149.619 84.2358 149.986C83.8741 150.346 83.6952 150.871 83.6952 151.56V157.418H81.7848V143.615V143.613Z" fill="#92E596"/>
<path d="M92.2542 143.613H94.1645V145.581H92.2542V143.613ZM92.2542 147.589H94.1645V157.416H92.2542V147.589Z" fill="#92E596"/>
<path d="M96.8464 147.589H98.7568V148.63H98.7934C99.4225 147.853 100.248 147.466 101.267 147.466C102.056 147.466 102.776 147.753 103.43 148.328C104.076 148.909 104.417 149.761 104.448 150.885V157.418H102.537V151.56C102.537 150.872 102.36 150.346 102.004 149.987C101.656 149.619 101.206 149.436 100.656 149.436C100.105 149.436 99.6533 149.619 99.2974 149.987C98.9357 150.346 98.7568 150.872 98.7568 151.56V157.418H96.8464V147.591V147.589Z" fill="#92E596"/>
<path d="M112.61 156.391C111.981 157.126 111.162 157.505 110.155 157.53C109.538 157.516 109.026 157.382 108.616 157.122C108.189 156.876 107.862 156.61 107.635 156.326C107.385 156.004 107.204 155.608 107.095 155.141C106.979 154.679 106.922 153.802 106.922 152.507C106.922 151.212 106.979 150.292 107.095 149.825C107.204 149.363 107.385 148.975 107.635 148.659C107.862 148.351 108.187 148.076 108.616 147.83C109.026 147.597 109.538 147.476 110.155 147.462C111.102 147.462 111.922 147.851 112.61 148.626V147.586H114.521V157.176C114.496 158.653 114.084 159.738 113.284 160.433C112.478 161.147 111.514 161.503 110.39 161.503C109.101 161.478 108.003 160.929 107.093 159.858L108.578 158.64C108.822 158.875 109.103 159.075 109.421 159.24C109.744 159.425 110.08 159.523 110.429 159.535C111.083 159.535 111.608 159.348 112.004 158.973C112.395 158.592 112.597 158.067 112.608 157.393V156.385L112.61 156.391ZM108.832 152.513C108.832 153.267 108.857 153.786 108.905 154.071C108.947 154.369 109.049 154.615 109.207 154.812C109.336 154.989 109.53 155.15 109.794 155.296C110.044 155.473 110.356 155.562 110.729 155.562C111.102 155.562 111.414 155.473 111.664 155.296C111.914 155.15 112.104 154.989 112.233 154.812C112.393 154.615 112.499 154.369 112.555 154.071C112.591 153.786 112.61 153.267 112.61 152.513C112.61 151.758 112.591 151.214 112.555 150.918C112.499 150.619 112.393 150.379 112.233 150.196C112.104 150.019 111.916 149.844 111.664 149.673C111.414 149.527 111.102 149.448 110.729 149.436C110.356 149.45 110.044 149.529 109.794 149.673C109.53 149.844 109.336 150.017 109.207 150.196C109.047 150.381 108.947 150.621 108.905 150.918C108.857 151.216 108.832 151.747 108.832 152.513Z" fill="#92E596"/>
<path d="M122.087 144.598H123.997V147.589H125.392V149.103H123.997V154.833C123.984 155.331 124.211 155.575 124.676 155.562H125.392V157.416H124.394C123.722 157.416 123.172 157.203 122.747 156.774C122.308 156.364 122.087 155.771 122.087 154.996V149.103H121.127V147.589H122.087V144.598Z" fill="#92E596"/>
<path d="M127.36 143.613H129.271V148.63H129.307C129.936 147.853 130.762 147.466 131.781 147.466C132.57 147.466 133.29 147.753 133.944 148.328C134.59 148.909 134.931 149.761 134.961 150.885V157.418H133.051V151.56C133.051 150.871 132.874 150.346 132.518 149.986C132.17 149.619 131.72 149.436 131.17 149.436C130.619 149.436 130.167 149.619 129.811 149.986C129.45 150.346 129.271 150.871 129.271 151.56V157.418H127.36V143.615V143.613Z" fill="#92E596"/>
<path d="M139.211 153.249C139.211 154.038 139.43 154.638 139.871 155.05C140.281 155.468 140.819 155.675 141.485 155.675C142.262 155.675 142.957 155.356 143.569 154.719L144.954 155.941C143.982 157.012 142.84 157.543 141.526 157.53C141.023 157.53 140.535 157.455 140.06 157.303C139.821 157.22 139.588 157.11 139.363 156.972C139.125 156.853 138.901 156.705 138.694 156.528C138.29 156.162 137.963 155.65 137.712 154.994C137.437 154.363 137.301 153.542 137.301 152.534C137.301 151.526 137.42 150.754 137.659 150.11C137.897 149.454 138.203 148.936 138.574 148.557C138.953 148.172 139.379 147.895 139.848 147.724C140.312 147.553 140.771 147.468 141.223 147.468C142.31 147.482 143.23 147.851 143.982 148.576C144.746 149.315 145.135 150.331 145.146 151.626V153.253H139.209L139.211 153.249ZM143.236 151.622C143.211 150.854 143.013 150.273 142.639 149.881C142.272 149.506 141.801 149.319 141.223 149.319C140.646 149.319 140.175 149.506 139.808 149.881C139.446 150.273 139.248 150.854 139.209 151.622H143.234H143.236Z" fill="#92E596"/>
<path d="M161.305 153.559C161.01 154.838 160.45 155.821 159.625 156.508C158.775 157.189 157.769 157.53 156.607 157.53C155.556 157.505 154.679 157.239 153.975 156.735C153.259 156.249 152.74 155.687 152.417 155.05C152.318 154.842 152.23 154.642 152.151 154.454C152.078 154.257 152.016 154.011 151.968 153.715C151.876 153.159 151.832 152.093 151.832 150.516C151.832 148.938 151.878 147.839 151.968 147.297C152.066 146.754 152.216 146.316 152.418 145.981C152.742 145.344 153.261 144.775 153.977 144.276C154.679 143.772 155.556 143.513 156.609 143.499C157.899 143.513 158.95 143.905 159.764 144.68C160.577 145.462 161.089 146.429 161.305 147.582H159.156C158.99 147.026 158.69 146.55 158.255 146.158C157.801 145.785 157.251 145.592 156.603 145.579C156.126 145.592 155.716 145.691 155.372 145.873C155.023 146.064 154.741 146.3 154.527 146.585C154.263 146.883 154.088 147.266 154.004 147.734C153.906 148.226 153.857 149.153 153.857 150.514C153.857 151.874 153.906 152.793 154.004 153.274C154.09 153.755 154.263 154.144 154.527 154.442C154.742 154.727 155.023 154.958 155.372 155.135C155.714 155.342 156.126 155.448 156.603 155.448C157.742 155.448 158.594 154.819 159.158 153.561H161.305V153.559Z" fill="#92E596"/>
<path d="M162.426 152.493C162.426 151.456 162.509 150.66 162.675 150.104C162.846 149.559 163.109 149.102 163.463 148.728C163.727 148.401 164.092 148.111 164.564 147.853C165.029 147.609 165.624 147.48 166.353 147.466C167.105 147.48 167.713 147.609 168.179 147.855C168.637 148.115 168.992 148.407 169.243 148.736C169.62 149.109 169.889 149.565 170.047 150.11C170.199 150.666 170.276 151.46 170.276 152.495C170.276 153.53 170.199 154.319 170.047 154.862C169.887 155.404 169.62 155.875 169.241 156.272C169.118 156.416 168.969 156.558 168.79 156.697C168.631 156.855 168.427 156.991 168.177 157.105C167.713 157.376 167.105 157.518 166.353 157.53C165.626 157.516 165.029 157.376 164.566 157.105C164.094 156.858 163.729 156.581 163.465 156.272C163.111 155.873 162.848 155.404 162.676 154.862C162.511 154.319 162.428 153.53 162.428 152.495L162.426 152.493ZM168.363 152.513C168.363 151.81 168.333 151.297 168.271 150.973C168.209 150.664 168.084 150.391 167.894 150.156C167.754 149.935 167.546 149.76 167.269 149.633C167.005 149.5 166.699 149.432 166.349 149.432C166.024 149.432 165.724 149.5 165.449 149.633C165.185 149.76 164.972 149.933 164.806 150.154C164.641 150.389 164.521 150.66 164.448 150.972C164.375 151.295 164.339 151.801 164.339 152.491C164.339 153.182 164.375 153.676 164.448 153.992C164.521 154.315 164.641 154.6 164.806 154.846C164.972 155.037 165.185 155.204 165.449 155.35C165.724 155.489 166.024 155.56 166.349 155.56C166.697 155.56 167.005 155.491 167.269 155.35C167.544 155.204 167.754 155.037 167.894 154.846C168.084 154.6 168.209 154.315 168.271 153.992C168.333 153.675 168.363 153.182 168.363 152.511V152.513Z" fill="#92E596"/>
<path d="M172.517 147.589H174.431V148.63H174.468C175.118 147.853 175.974 147.466 177.034 147.466C177.715 147.48 178.265 147.595 178.681 147.816C179.091 148.063 179.466 148.374 179.808 148.753C180.578 147.882 181.611 147.453 182.904 147.466C183.717 147.466 184.462 147.753 185.137 148.328C185.807 148.909 186.153 149.761 186.178 150.885V157.418H184.266V151.56C184.266 150.871 184.083 150.346 183.717 149.986C183.352 149.619 182.879 149.436 182.302 149.436C181.724 149.436 181.249 149.619 180.876 149.986C180.497 150.346 180.308 150.871 180.308 151.56V157.418H178.398V151.56C178.398 150.871 178.215 150.346 177.85 149.986C177.477 149.619 177.001 149.436 176.424 149.436C175.847 149.436 175.374 149.619 175.008 149.986C174.623 150.346 174.431 150.871 174.431 151.56V157.418H172.519V147.591L172.517 147.589Z" fill="#92E596"/>
<path d="M189.418 149.103H188.452V147.589H189.418V146.293C189.418 145.358 189.668 144.671 190.17 144.228C190.659 143.819 191.272 143.613 192.013 143.613H193.25V145.467H192.157C191.58 145.448 191.305 145.721 191.33 146.285V147.587H193.25V149.102H191.33V157.414H189.42V149.102L189.418 149.103Z" fill="#92E596"/>
<path d="M194.029 152.493C194.029 151.456 194.112 150.66 194.277 150.104C194.449 149.559 194.712 149.102 195.066 148.728C195.33 148.401 195.695 148.111 196.167 147.853C196.632 147.609 197.227 147.48 197.956 147.466C198.708 147.48 199.316 147.609 199.781 147.855C200.239 148.115 200.595 148.407 200.845 148.736C201.222 149.109 201.492 149.565 201.65 150.11C201.802 150.666 201.878 151.46 201.878 152.495C201.878 153.53 201.802 154.319 201.65 154.862C201.49 155.404 201.222 155.875 200.843 156.272C200.72 156.416 200.572 156.558 200.393 156.697C200.234 156.855 200.03 156.991 199.78 157.105C199.316 157.376 198.708 157.518 197.956 157.53C197.229 157.516 196.632 157.376 196.168 157.105C195.697 156.858 195.332 156.581 195.068 156.272C194.714 155.873 194.45 155.404 194.279 154.862C194.114 154.319 194.031 153.53 194.031 152.495L194.029 152.493ZM199.966 152.513C199.966 151.81 199.935 151.297 199.874 150.973C199.812 150.664 199.687 150.391 199.497 150.156C199.356 149.935 199.149 149.76 198.871 149.633C198.608 149.5 198.302 149.432 197.952 149.432C197.627 149.432 197.327 149.5 197.052 149.633C196.788 149.76 196.574 149.933 196.409 150.154C196.244 150.389 196.124 150.66 196.051 150.972C195.978 151.295 195.941 151.801 195.941 152.491C195.941 153.182 195.978 153.676 196.051 153.992C196.124 154.315 196.244 154.6 196.409 154.846C196.574 155.037 196.788 155.204 197.052 155.35C197.327 155.489 197.627 155.56 197.952 155.56C198.3 155.56 198.608 155.491 198.871 155.35C199.147 155.204 199.356 155.037 199.497 154.846C199.687 154.6 199.812 154.315 199.874 153.992C199.935 153.675 199.966 153.182 199.966 152.511V152.513Z" fill="#92E596"/>
<path d="M204.197 147.589H206.107V148.63H206.148C206.777 147.853 207.604 147.466 208.625 147.466C209.389 147.48 210.057 147.73 210.624 148.22L209.23 149.929C208.826 149.6 208.406 149.434 207.971 149.434C207.483 149.434 207.063 149.598 206.713 149.927C206.321 150.25 206.119 150.771 206.107 151.491V157.416H204.197V147.589Z" fill="#92E596"/>
<path d="M211.856 144.598H213.766V147.589H215.161V149.103H213.766V154.833C213.753 155.331 213.98 155.575 214.445 155.562H215.161V157.416H214.162C213.491 157.416 212.941 157.203 212.514 156.774C212.075 156.364 211.854 155.771 211.854 154.996V149.103H210.894V147.589H211.854V144.598H211.856Z" fill="#92E596"/>
<path d="M221.134 155.683L227.196 145.467H221.184V143.613H229.672V145.186L223.395 155.448H229.672V157.416H221.134V155.683Z" fill="#92E596"/>
<path d="M231.367 152.493C231.367 151.456 231.45 150.66 231.615 150.104C231.787 149.559 232.05 149.102 232.404 148.728C232.668 148.401 233.033 148.111 233.505 147.853C233.97 147.609 234.565 147.48 235.294 147.466C236.046 147.48 236.654 147.609 237.12 147.855C237.577 148.115 237.933 148.407 238.183 148.736C238.561 149.109 238.83 149.565 238.988 150.11C239.14 150.666 239.217 151.46 239.217 152.495C239.217 153.53 239.14 154.319 238.988 154.862C238.828 155.404 238.561 155.875 238.182 156.272C238.058 156.416 237.91 156.558 237.731 156.697C237.572 156.855 237.368 156.991 237.118 157.105C236.654 157.376 236.046 157.518 235.294 157.53C234.567 157.516 233.97 157.376 233.507 157.105C233.035 156.858 232.67 156.581 232.406 156.272C232.052 155.873 231.789 155.404 231.617 154.862C231.452 154.319 231.369 153.53 231.369 152.495L231.367 152.493ZM237.304 152.513C237.304 151.81 237.274 151.297 237.212 150.973C237.15 150.664 237.025 150.391 236.835 150.156C236.694 149.935 236.487 149.76 236.21 149.633C235.946 149.5 235.64 149.432 235.29 149.432C234.965 149.432 234.665 149.5 234.39 149.633C234.126 149.76 233.913 149.933 233.747 150.154C233.582 150.389 233.462 150.66 233.389 150.972C233.316 151.295 233.28 151.801 233.28 152.491C233.28 153.182 233.316 153.676 233.389 153.992C233.462 154.315 233.582 154.6 233.747 154.846C233.913 155.037 234.126 155.204 234.39 155.35C234.665 155.489 234.965 155.56 235.29 155.56C235.638 155.56 235.946 155.491 236.21 155.35C236.485 155.204 236.694 155.037 236.835 154.846C237.025 154.6 237.15 154.315 237.212 153.992C237.274 153.675 237.304 153.182 237.304 152.511V152.513Z" fill="#92E596"/>
<path d="M241.537 147.589H243.447V148.63H243.484C244.113 147.853 244.938 147.466 245.958 147.466C246.747 147.466 247.466 147.753 248.12 148.328C248.767 148.909 249.107 149.761 249.138 150.885V157.418H247.227V151.56C247.227 150.872 247.05 150.346 246.695 149.987C246.346 149.619 245.896 149.436 245.346 149.436C244.796 149.436 244.344 149.619 243.988 149.987C243.626 150.346 243.447 150.872 243.447 151.56V157.418H241.537V147.591V147.589Z" fill="#92E596"/>
<path d="M253.388 153.249C253.388 154.038 253.607 154.638 254.048 155.05C254.457 155.468 254.996 155.675 255.662 155.675C256.439 155.675 257.133 155.356 257.745 154.719L259.13 155.941C258.159 157.012 257.016 157.543 255.702 157.53C255.2 157.53 254.711 157.455 254.236 157.303C253.998 157.22 253.765 157.11 253.54 156.972C253.301 156.853 253.078 156.705 252.87 156.528C252.466 156.162 252.139 155.65 251.889 154.994C251.614 154.363 251.477 153.542 251.477 152.534C251.477 151.526 251.597 150.754 251.835 150.11C252.074 149.454 252.38 148.936 252.751 148.557C253.13 148.172 253.555 147.895 254.024 147.724C254.488 147.553 254.948 147.468 255.4 147.468C256.487 147.482 257.407 147.851 258.159 148.576C258.923 149.315 259.311 150.331 259.323 151.626V153.253H253.386L253.388 153.249ZM257.412 151.622C257.387 150.854 257.189 150.273 256.816 149.881C256.449 149.506 255.977 149.319 255.4 149.319C254.823 149.319 254.351 149.506 253.984 149.881C253.622 150.273 253.422 150.854 253.386 151.622H257.41H257.412Z" fill="#92E596"/>
<path fill-rule="evenodd" clip-rule="evenodd" d="M48.1382 57.3882C52.9401 56.761 60.27 55.1989 60.7394 54.8083C91.6074 29.429 57.1206 68.7639 91.0226 41.0144C105.488 29.177 100.315 34.1674 111.679 43.8944C115.696 47.34 120.042 38.2652 115.909 31.0104C115.788 30.8007 124.409 20.4851 124.532 20.4023C124.428 19.6136 127.881 37.4322 127.703 25.0927C127.703 25.0042 130.192 16.4219 131.773 16.3199C135.192 16.1006 130.33 13.0398 136.206 9.36718C137.62 8.48606 139.571 4.00928 139.915 3.13393C139.973 3.22243 148.901 11.2256 150.258 12.8705C151.731 14.652 159.561 16.4719 159.271 22.7283C159.255 23.0745 162.155 29.3213 161.97 32.6457C161.814 35.491 169.702 38.8828 172.592 46.0356C176.295 55.2027 171.591 37.2956 175.379 43.0671C178.461 47.7728 180.635 46.0702 185.804 53.7079C186.376 54.5448 187.801 56.5205 188.696 57.3863H189.444C189.385 56.9669 189.131 56.1935 188.602 54.943C187.744 52.9133 186.82 45.3873 185.699 44.6947C183.771 43.5115 176.343 38.6846 176.368 37.1282C176.489 29.6637 186.08 42.4515 183.546 37.1821C178.69 27.0858 180.82 33.6441 178.119 32.1609C179.348 30.6083 178.515 29.606 178.857 28.6614C180.714 28.0438 181.031 28.9384 176.73 24.8426C172.155 20.4928 178.111 18.4977 175.624 13.0129C174.56 10.6735 178.457 10.8966 181.089 13.0321C182.44 14.1325 192.372 18.5016 198.881 21.1873C204.042 27.2166 210.147 31.2393 217.194 33.2594C211.819 30.2466 207.409 26.8895 203.966 23.1823C204.212 23.265 204.391 23.3131 204.487 23.3323C212.111 24.5828 210.218 25.9796 214.751 28.5152C217.661 28.9096 223.723 36.1548 232.009 38.2517C236.392 39.3656 240.919 47.2284 245.644 50.6009C254.597 56.9803 248.487 53.7098 258.276 56.5667C259.239 56.8495 260.055 57.1208 260.775 57.3843H264.211C258.912 55.5702 255.601 51.0299 251.819 49.7198C244.37 47.1514 240.58 41.5992 235.763 36.1547C230.676 30.4025 223.454 31.0258 220.815 27.8303C219 25.6313 208.398 19.9906 205.491 19.0383C205.418 18.971 205.23 18.9306 205.108 18.8479C204.712 18.5805 204.52 18.5805 204.231 18.4208C203.567 18.0418 203.369 18.4304 202.652 18.415C202.382 18.415 201.474 17.8417 201.445 17.7628C201.366 17.7186 201.014 17.5724 200.964 17.5339C200.512 17.1549 199.325 16.3122 198.765 16.2545C198.367 16.2161 197.663 15.7389 197.373 15.6466C196.599 15.3926 196.368 14.8136 195.262 14.625C194.396 14.4788 193.282 14.1922 192.526 13.7343C192.536 13.642 183.328 11.0679 182.828 10.937C182.738 10.9178 182.526 10.8293 182.255 10.7081C180.327 8.54185 177.199 8.09937 174.773 6.73729C173.655 6.11396 169.231 8.47451 167.668 9.48646C166.849 10.0213 166.41 10.0117 165.873 10.4638C165.544 10.7408 163.195 11.7778 162.816 11.4468C162.486 11.1544 162.703 11.2564 162.37 11.1852C160.998 10.8832 161.295 11.6662 160.631 11.7585C159.448 11.9201 159.952 12.0952 159.35 12.303C158.355 12.6589 158.971 12.907 157.926 12.8878C157.124 11.6816 154.852 11.3449 153.788 9.75387C153.553 9.39796 151.564 7.62225 150.927 7.60879C150.125 7.59917 147.839 5.24439 146.558 4.82114C146.547 4.81537 145.054 3.76495 144.973 3.69762C144.961 3.688 143.836 3.19165 143.536 2.91846C143.132 2.54908 141.681 1.95462 140.554 1.64873C140.059 1.36207 139.563 1.11775 139.094 1.00616C137.404 0.592537 137.227 -0.380927 136.01 0.153901C133.557 1.21971 134.103 0.767606 131.473 2.4856C131.225 2.45097 129.853 2.72415 129.719 2.85497C129.017 3.53217 128.499 4.32479 127.716 4.3094C126.31 4.28439 126.758 4.5922 125.163 5.4233C123.814 6.13897 123.547 6.65841 122.071 7.27211C121.417 7.54915 119.871 9.00357 119.216 8.93624C118.824 9.17479 118.17 8.63419 117.398 9.8212C117.258 10.0347 116.39 10.0117 115.582 11.0236C115.55 11.0679 114.722 11.4719 114.495 11.7046C113.102 13.1302 113.853 12.2549 113.224 12.6089C112.339 13.1148 111.402 13.6689 110.459 14.0402C108.589 14.7597 108.668 15.3003 107.768 15.8313C106.575 16.5373 106.498 16.951 104.97 17.48C104.147 17.7724 101.442 19.8983 100.549 20.0599C99.6895 20.2061 96.5267 23.1746 95.2839 23.7133C95.1858 23.7614 94.8876 23.9865 94.8029 24.0634C92.9753 24.2827 92.3558 25.5332 90.7898 26.2816C90.0741 26.6221 89.9164 27.0646 89.0333 27.3089C87.779 27.6456 85.9629 29.4983 85.4415 29.6733C84.3853 30.0389 82.6731 31.6395 81.7015 31.5471C81.6862 31.5414 78.7812 33.1766 78.7004 33.294C78.6196 33.4056 78.5176 33.4441 78.5214 33.5518C77.4518 34.3887 78.1444 32.9188 76.0955 35.3467C74.7834 36.8993 71.3821 37.9401 69.2177 40.343C68.7368 40.8778 68.5309 39.5888 66.1492 43.1402C64.033 46.2876 62.1188 45.8855 59.4504 48.0152C57.4535 49.6063 56.1145 48.9194 53.1036 51.3242C51.0413 52.9691 48.7673 54.3793 46.4914 55.5913C45.6064 56.0684 44.8888 57.09 44.002 57.3824H48.1382V57.3882Z" fill="#92E596"/>
<path fill-rule="evenodd" clip-rule="evenodd" d="M294.434 125.134C198.092 127.693 101.56 127.693 5.20605 125.134C101.587 123.668 198.048 123.668 294.434 125.134Z" fill="#92E596"/>
<path fill-rule="evenodd" clip-rule="evenodd" d="M281.364 158.213C275.754 154.692 271.268 150.065 267.918 144.35C273.047 148.342 277.53 152.965 281.364 158.213Z" fill="#92E596"/>
<path fill-rule="evenodd" clip-rule="evenodd" d="M266.5 158.213C270.333 152.965 274.817 148.342 279.946 144.35C276.598 150.064 272.11 154.69 266.5 158.213Z" fill="#92E596"/>
<path fill-rule="evenodd" clip-rule="evenodd" d="M43.8307 158.213C38.2208 154.692 33.7344 150.065 30.385 144.35C35.514 148.342 39.9965 152.965 43.8307 158.213Z" fill="#92E596"/>
<path fill-rule="evenodd" clip-rule="evenodd" d="M28.9673 158.213C32.7996 152.965 37.2841 148.342 42.413 144.35C39.0655 150.064 34.5772 154.69 28.9673 158.213Z" fill="#92E596"/>
</g>
<defs>
<clipPath id="clip0_390_2236">
<rect width="300" height="161.506" fill="white"/>
</clipPath>
</defs>
</svg>
