<svg width="380" height="162" viewBox="0 0 380 162" fill="none" xmlns="http://www.w3.org/2000/svg">
<path d="M0 140.929V81.5039H13.6879C23.7034 81.5039 28.7112 87.3183 28.7112 98.947C28.7112 102.451 28.1677 105.429 27.0833 107.878C25.9989 110.327 24.0909 112.301 21.3664 113.805L30.5461 140.929H21.5321L13.6026 115.557H8.51197V140.929H0ZM8.51197 89.5163V108.044H13.354C14.8551 108.044 16.0516 107.834 16.9435 107.418C17.833 107.001 18.5299 106.404 19.0295 105.624C19.4754 104.847 19.78 103.887 19.9482 102.744C20.1163 101.603 20.1992 100.282 20.1992 98.7789C20.1992 97.2753 20.1163 95.9545 19.9482 94.8141C19.78 93.6736 19.4462 92.6867 18.9466 91.8508C17.889 90.2937 15.8859 89.5139 12.9373 89.5139H8.51441L8.51197 89.5163Z" fill="white"/>
<path d="M44.2339 140.929L57.5051 81.5039H64.5988L77.8699 140.929H69.358L66.8553 128.16H55.2534L52.7507 140.929H44.2388H44.2339ZM65.2665 120.148L61.0946 98.6156H60.9264L56.7545 120.148H65.2689H65.2665Z" fill="white"/>
<path d="M94.811 140.929V81.5039H103.325V140.929H94.811Z" fill="white"/>
<path d="M123.773 140.929V81.5039H131.952L144.804 117.309H144.972V81.5039H153.484V140.929H145.471L132.451 105.207H132.285V140.929H123.771H123.773Z" fill="white"/>
<path d="M181.613 140.929V115.808L169.928 81.5039H178.942L185.784 105.124H185.953L192.795 81.5039H201.809L190.124 115.808V140.929H181.61H181.613Z" fill="white"/>
<path d="M218.584 140.929V81.5039H231.188C236.084 81.5039 239.797 82.8393 242.329 85.5101C244.861 88.1809 246.126 91.9654 246.126 96.861V124.653C246.126 130.217 244.776 134.323 242.078 136.965C239.378 139.609 235.499 140.929 230.435 140.929H218.584ZM227.099 89.5163V132.917H231.022C233.415 132.917 235.111 132.32 236.113 131.123C237.114 129.927 237.616 128.05 237.616 125.489V96.861C237.616 94.5241 237.144 92.7159 236.198 91.4366C235.25 90.1572 233.527 89.5163 231.022 89.5163H227.099Z" fill="white"/>
<path d="M261.817 140.929L275.088 81.5039H282.182L295.453 140.929H286.939L284.436 128.16H272.834L270.331 140.929H261.817ZM282.849 120.148L278.678 98.6156H278.512L274.34 120.148H282.852H282.849Z" fill="white"/>
<path d="M315.484 140.929V115.808L303.799 81.5039H312.813L319.656 105.124H319.822L326.664 81.5039H335.678L323.994 115.808V140.929H315.482H315.484Z" fill="white"/>
<path d="M380 98.6132H371.488V96.693C371.488 94.7459 371.03 93.062 370.111 91.6438C369.192 90.2255 367.65 89.5164 365.478 89.5164C364.311 89.5164 363.363 89.7406 362.642 90.1841C361.918 90.63 361.333 91.1856 360.89 91.8533C360.444 92.5771 360.139 93.3983 359.971 94.3146C359.803 95.2308 359.72 96.1934 359.72 97.1949C359.72 98.3622 359.762 99.337 359.844 100.117C359.927 100.897 360.137 101.591 360.471 102.203C360.805 102.817 361.292 103.343 361.93 103.789C362.569 104.235 363.446 104.681 364.56 105.125L371.069 107.712C372.96 108.436 374.49 109.284 375.66 110.259C376.827 111.234 377.746 112.36 378.413 113.639C379.025 114.974 379.442 116.49 379.666 118.189C379.888 119.887 380 121.819 380 123.988C380 126.493 379.749 128.816 379.249 130.958C378.75 133.1 377.941 134.923 376.829 136.424C375.662 137.983 374.129 139.207 372.238 140.096C370.345 140.985 368.037 141.431 365.31 141.431C363.251 141.431 361.331 141.068 359.552 140.347C357.771 139.626 356.24 138.622 354.961 137.342C353.682 136.063 352.665 134.574 351.915 132.878C351.164 131.182 350.789 129.33 350.789 127.327V124.156H359.301V126.827C359.301 128.384 359.759 129.79 360.678 131.043C361.597 132.296 363.139 132.922 365.31 132.922C366.755 132.922 367.884 132.712 368.69 132.296C369.497 131.879 370.123 131.282 370.569 130.502C371.015 129.725 371.278 128.791 371.361 127.707C371.444 126.623 371.485 125.411 371.485 124.076C371.485 122.519 371.429 121.24 371.32 120.238C371.208 119.236 370.986 118.43 370.652 117.818C370.262 117.206 369.748 116.707 369.107 116.315C368.466 115.927 367.618 115.508 366.56 115.062L360.468 112.559C356.796 111.056 354.335 109.067 353.082 106.592C351.83 104.116 351.203 101.014 351.203 97.2851C351.203 95.0603 351.508 92.9451 352.122 90.9419C352.734 88.9388 353.652 87.216 354.876 85.7685C356.043 84.3234 357.532 83.1683 359.34 82.3057C361.148 81.443 363.305 81.0117 365.807 81.0117C367.92 81.0117 369.855 81.4016 371.607 82.179C373.359 82.9588 374.875 83.9871 376.157 85.2665C378.716 87.9373 379.995 90.998 379.995 94.4462V98.6181L380 98.6132Z" fill="white"/>
<path fill-rule="evenodd" clip-rule="evenodd" d="M60.9751 73.6346C67.0575 72.8401 76.342 70.8614 76.9366 70.3667C116.036 38.2196 72.3528 88.0437 115.295 52.8944C133.618 37.9004 127.065 44.2216 141.46 56.5424C146.548 60.9068 152.053 49.4121 146.819 40.2227C146.665 39.9571 157.585 26.8906 157.741 26.7858C157.609 25.7867 161.983 48.3569 161.757 32.7269C161.757 32.6148 164.91 21.7439 166.913 21.6148C171.243 21.337 165.085 17.4599 172.528 12.8079C174.319 11.6919 176.79 6.02128 177.226 4.9125C177.299 5.0246 188.608 15.162 190.326 17.2455C192.193 19.502 202.111 21.8073 201.743 29.732C201.724 30.1706 205.396 38.0831 205.162 42.294C204.965 45.8982 214.956 50.1943 218.616 59.2546C223.307 70.8663 217.349 48.1839 222.147 55.4945C226.051 61.4551 228.804 59.2985 235.352 68.9728C236.076 70.0329 237.882 72.5355 239.015 73.6321H239.963C239.887 73.1009 239.566 72.1213 238.896 70.5373C237.809 67.9664 236.639 58.4334 235.218 57.5561C232.777 56.0574 223.368 49.9433 223.4 47.9719C223.553 38.5169 235.701 54.7147 232.491 48.0402C226.341 35.2515 229.038 43.5588 225.617 41.6799C227.174 39.7134 226.119 38.4438 226.553 37.2473C228.904 36.465 229.307 37.5982 223.858 32.4101C218.063 26.9003 225.607 24.3733 222.456 17.4258C221.109 14.4626 226.046 14.7453 229.38 17.4502C231.09 18.8441 243.672 24.3782 251.916 27.78C258.454 35.4172 266.186 40.5127 275.112 43.0714C268.304 39.2553 262.718 35.0029 258.356 30.3071C258.668 30.4119 258.895 30.4728 259.017 30.4972C268.674 32.0811 266.276 33.8503 272.017 37.0621C275.704 37.5616 283.383 46.7389 293.879 49.3951C299.43 50.806 305.164 60.7655 311.149 65.0373C322.49 73.1179 314.75 68.9753 327.149 72.594C328.37 72.9522 329.403 73.2958 330.315 73.6297H334.667C327.956 71.3317 323.762 65.5807 318.971 63.9212C309.535 60.668 304.735 53.6352 298.633 46.7389C292.19 39.4526 283.042 40.2422 279.698 36.1945C277.4 33.4092 263.971 26.2643 260.289 25.0581C260.196 24.9728 259.957 24.9216 259.804 24.8168C259.302 24.4781 259.058 24.4781 258.693 24.2758C257.852 23.7958 257.601 24.288 256.692 24.2685C256.351 24.2685 255.201 23.5423 255.164 23.4424C255.064 23.3864 254.618 23.2012 254.555 23.1524C253.982 22.6724 252.479 21.605 251.77 21.5319C251.265 21.4832 250.373 20.8788 250.005 20.7619C249.026 20.4402 248.733 19.7067 247.332 19.4679C246.235 19.2827 244.824 18.9196 243.867 18.3396C243.879 18.2227 232.216 14.9621 231.583 14.7964C231.468 14.7721 231.2 14.66 230.856 14.5064C228.415 11.7625 224.452 11.2021 221.379 9.47675C219.964 8.68721 214.359 11.6772 212.38 12.959C211.342 13.6365 210.786 13.6243 210.106 14.197C209.69 14.5479 206.714 15.8613 206.234 15.4422C205.815 15.0718 206.09 15.2009 205.669 15.1108C203.931 14.7282 204.307 15.72 203.466 15.837C201.967 16.0417 202.606 16.2634 201.843 16.5266C200.583 16.9774 201.363 17.2918 200.04 17.2674C199.024 15.7395 196.146 15.313 194.798 13.2978C194.501 12.8469 191.981 10.5977 191.174 10.5807C190.158 10.5685 187.263 7.58574 185.64 7.04963C185.626 7.04232 183.735 5.71179 183.632 5.6265C183.618 5.61432 182.192 4.98561 181.812 4.63957C181.3 4.17169 179.463 3.4187 178.035 3.03124C177.409 2.66815 176.78 2.35867 176.185 2.21733C174.046 1.6934 173.821 0.460347 172.279 1.1378C169.172 2.48782 169.864 1.91516 166.533 4.09128C166.218 4.04741 164.481 4.39345 164.31 4.55916C163.421 5.41693 162.765 6.42092 161.774 6.40143C159.992 6.36975 160.56 6.75965 158.54 7.81237C156.832 8.71889 156.493 9.37684 154.624 10.1542C153.795 10.5051 151.836 12.3474 151.008 12.2621C150.51 12.5643 149.682 11.8795 148.705 13.383C148.527 13.6535 147.428 13.6243 146.404 14.9061C146.363 14.9621 145.315 15.4739 145.027 15.7687C143.263 17.5745 144.214 16.4657 143.417 16.9141C142.296 17.555 141.109 18.2568 139.915 18.7271C137.546 19.6385 137.646 20.3232 136.506 20.9958C134.995 21.8901 134.897 22.4141 132.963 23.0842C131.92 23.4546 128.493 26.1473 127.363 26.352C126.273 26.5372 122.267 30.2973 120.693 30.9797C120.569 31.0406 120.191 31.3257 120.084 31.4232C117.769 31.701 116.984 33.2849 115 34.2329C114.094 34.6642 113.894 35.2247 112.776 35.5342C111.187 35.9606 108.886 38.3073 108.226 38.5291C106.888 38.9921 104.719 41.0195 103.489 40.9026C103.469 40.8953 99.7895 42.9666 99.6872 43.1152C99.5848 43.2566 99.4557 43.3053 99.4605 43.4418C98.1056 44.5018 98.9829 42.6401 96.3876 45.7154C94.7257 47.6819 90.4173 49.0003 87.6758 52.0439C87.0666 52.7214 86.8059 51.0887 83.789 55.5871C81.1085 59.5738 78.6838 59.0645 75.3039 61.7621C72.7744 63.7774 71.0783 62.9075 67.2647 65.9536C64.6523 68.0371 61.772 69.8233 58.8891 71.3585C57.7682 71.9629 56.8592 73.2568 55.7358 73.6272H60.9751V73.6346Z" fill="white"/>
<path fill-rule="evenodd" clip-rule="evenodd" d="M372.95 159.447C250.917 162.688 128.642 162.688 6.59424 159.447C128.676 157.59 250.861 157.59 372.95 159.447Z" fill="white"/>
</svg>
