<svg width="321" height="24" viewBox="0 0 321 24" fill="none" xmlns="http://www.w3.org/2000/svg">
<path d="M28.2699 0.909392H34.4084C35.0761 0.909392 35.7194 0.97276 36.3384 1.10191C36.9573 1.27006 37.586 1.61365 38.2221 2.1327C38.7557 2.52504 39.1895 3.08308 39.5209 3.81171C39.8694 4.51596 40.0424 5.34693 40.0424 6.30706C40.0424 7.60103 39.6013 8.78046 38.7167 9.84538C37.8102 10.9639 36.4846 11.5414 34.7398 11.5707H30.8335V18.3963H28.2699V0.909392ZM30.8335 9.07777H34.6399C35.5951 9.06071 36.3116 8.7561 36.7941 8.16151C37.2522 7.58397 37.4813 6.94064 37.4813 6.23395C37.4813 5.64667 37.3887 5.15442 37.201 4.75233C37.0061 4.39168 36.7356 4.10656 36.3871 3.89699C35.8583 3.55096 35.2466 3.38768 34.5473 3.4023H30.8335V9.07777Z" fill="white"/>
<path d="M42.6133 5.94639H45.0331V13.3666C45.0331 14.2074 45.2622 14.8629 45.7179 15.3356C46.1663 15.8084 46.7414 16.0448 47.4383 16.0448C48.1353 16.0448 48.7055 15.8084 49.1466 15.3356C49.5949 14.8629 49.8216 14.2074 49.8216 13.3666V5.94639H52.2414V18.3939H49.8216V17.0634H49.7753C48.9784 18.0479 47.9379 18.5377 46.6536 18.5377C45.6545 18.5206 44.7529 18.1454 43.9487 17.4119C43.0739 16.693 42.6304 15.6329 42.6133 14.2269V5.94396V5.94639Z" fill="white"/>
<path d="M56.155 14.5924C57.1419 15.6573 58.4139 16.1885 59.976 16.1885C60.6753 16.1885 61.2456 16.0496 61.6891 15.7694C62.1326 15.4892 62.3519 15.0968 62.3519 14.5948C62.3519 14.1465 62.2203 13.8345 61.9571 13.6591C61.6866 13.4763 61.3236 13.374 60.8752 13.3593L58.7332 13.1668C57.717 13.0718 56.8909 12.7185 56.2549 12.1117C55.6042 11.5195 55.2704 10.6934 55.2533 9.6285C55.2679 8.34915 55.7066 7.38903 56.5668 6.75057C57.4026 6.11211 58.4651 5.79044 59.7518 5.79044C60.3098 5.79044 60.8094 5.82699 61.2504 5.89766C61.6915 5.97808 62.1058 6.09018 62.4932 6.23395C63.2365 6.54587 63.9042 6.96501 64.4939 7.49137L62.9928 9.30196C62.5274 8.95592 62.0351 8.66838 61.5136 8.44175C61.0019 8.23949 60.4122 8.13957 59.7445 8.13957C58.9842 8.13957 58.4529 8.28091 58.1507 8.55872C57.8315 8.83896 57.6731 9.19961 57.6731 9.63825C57.6561 9.91849 57.7779 10.1622 58.0338 10.3717C58.2677 10.6032 58.6771 10.7519 59.2668 10.8153L61.2675 10.9712C62.5249 11.0663 63.4314 11.4586 63.9919 12.1482C64.511 12.8208 64.7717 13.6737 64.7717 14.7069C64.7571 15.9156 64.2795 16.8489 63.3437 17.5045C62.4128 18.177 61.2236 18.5206 59.7761 18.5377C57.8096 18.5377 56.038 17.7944 54.4662 16.3079L56.1574 14.5924H56.155Z" fill="white"/>
<path d="M67.5936 0.909392H70.0134V7.26474H70.0597C70.8565 6.28025 71.902 5.79044 73.1935 5.79044C74.1926 5.79044 75.104 6.15353 75.9325 6.88215C76.7513 7.61809 77.1826 8.69761 77.2216 10.1207V18.3963H74.8018V10.9761C74.8018 10.1037 74.5776 9.43842 74.1268 8.98273C73.6857 8.51729 73.1155 8.28579 72.4186 8.28579C71.7216 8.28579 71.149 8.51729 70.6981 8.98273C70.24 9.43842 70.0134 10.1037 70.0134 10.9761V18.3963H67.5936V0.909392Z" fill="white"/>
<path d="M80.855 0.909392H83.2748V3.4023H80.855V0.909392ZM80.855 5.94639H83.2748V18.3939H80.855V5.94639Z" fill="white"/>
<path d="M86.6718 5.94639H89.0916V7.26474H89.1379C89.9348 6.28025 90.9802 5.79044 92.2717 5.79044C93.2708 5.79044 94.1822 6.15353 95.0108 6.88215C95.8296 7.61809 96.2609 8.69761 96.2999 10.1207V18.3963H93.8801V10.9761C93.8801 10.1037 93.6559 9.43842 93.205 8.98273C92.764 8.51729 92.1937 8.28579 91.4968 8.28579C90.7999 8.28579 90.2272 8.51729 89.7764 8.98273C89.3182 9.43842 89.0916 10.1037 89.0916 10.9761V18.3963H86.6718V5.94639Z" fill="white"/>
<path d="M106.64 17.0951C105.843 18.0259 104.805 18.506 103.53 18.5377C102.748 18.5206 102.1 18.35 101.581 18.0211C101.04 17.7092 100.625 17.3729 100.338 17.0122C100.021 16.6052 99.7919 16.1032 99.653 15.5111C99.5068 14.9262 99.4337 13.815 99.4337 12.175C99.4337 10.535 99.5068 9.3702 99.653 8.77804C99.7919 8.19319 100.021 7.70093 100.338 7.30129C100.625 6.91139 101.037 6.56292 101.581 6.251C102.1 5.95614 102.748 5.80262 103.53 5.78556C104.729 5.78556 105.767 6.27781 106.64 7.25986V5.94153H109.059V18.0893C109.028 19.9608 108.506 21.3352 107.492 22.2149C106.471 23.119 105.25 23.5698 103.827 23.5698C102.195 23.5381 100.803 22.8436 99.6506 21.4863L101.532 19.9437C101.841 20.241 102.197 20.4945 102.599 20.704C103.009 20.938 103.435 21.0623 103.876 21.0769C104.705 21.0769 105.37 20.8405 105.872 20.3653C106.367 19.8828 106.622 19.2176 106.637 18.3647V17.0877L106.64 17.0951ZM101.854 12.1823C101.854 13.1376 101.885 13.7955 101.946 14.1562C102 14.5339 102.129 14.8458 102.329 15.0944C102.492 15.3186 102.738 15.5233 103.072 15.7085C103.389 15.9327 103.784 16.0448 104.256 16.0448C104.729 16.0448 105.124 15.9327 105.441 15.7085C105.757 15.5233 105.999 15.3186 106.162 15.0944C106.364 14.8458 106.498 14.5339 106.569 14.1562C106.615 13.7955 106.64 13.1376 106.64 12.1823C106.64 11.2271 106.615 10.5375 106.569 10.1622C106.498 9.78446 106.364 9.47986 106.162 9.24835C105.999 9.02416 105.76 8.8024 105.441 8.58552C105.124 8.40032 104.729 8.30041 104.256 8.28579C103.784 8.30285 103.389 8.40275 103.072 8.58552C102.738 8.8024 102.492 9.02173 102.329 9.24835C102.126 9.48229 102 9.7869 101.946 10.1622C101.885 10.5399 101.854 11.2125 101.854 12.1823Z" fill="white"/>
<path d="M118.643 2.15707H121.063V5.94639H122.83V7.86422H121.063V15.1212C121.046 15.7523 121.334 16.0618 121.924 16.0448H122.83V18.3939H121.565C120.715 18.3939 120.018 18.1234 119.479 17.58C118.924 17.0609 118.643 16.3104 118.643 15.3283V7.86422H117.427V5.94639H118.643V2.15707Z" fill="white"/>
<path d="M125.323 0.909392H127.743V7.26474H127.789C128.586 6.28025 129.631 5.79044 130.923 5.79044C131.922 5.79044 132.833 6.15353 133.662 6.88215C134.481 7.61809 134.912 8.69761 134.951 10.1207V18.3963H132.531V10.9761C132.531 10.1037 132.307 9.43842 131.856 8.98273C131.415 8.51729 130.845 8.28579 130.148 8.28579C129.451 8.28579 128.878 8.51729 128.428 8.98273C127.969 9.43842 127.743 10.1037 127.743 10.9761V18.3963H125.323V0.909392Z" fill="white"/>
<path d="M140.334 13.1157C140.334 14.1148 140.612 14.8751 141.17 15.3966C141.689 15.9254 142.371 16.1885 143.214 16.1885C144.199 16.1885 145.079 15.784 145.854 14.9774L147.608 16.5248C146.378 17.8822 144.93 18.5547 143.266 18.5377C142.63 18.5377 142.011 18.4426 141.409 18.2501C141.107 18.1454 140.812 18.0064 140.527 17.831C140.224 17.6799 139.942 17.4923 139.679 17.2681C139.167 16.8051 138.753 16.1569 138.436 15.3259C138.087 14.5266 137.914 13.4861 137.914 12.2091C137.914 10.9322 138.065 9.95504 138.368 9.13869C138.67 8.30772 139.057 7.6522 139.527 7.17214C140.008 6.68477 140.546 6.33385 141.141 6.11697C141.728 5.90009 142.31 5.79288 142.883 5.79288C144.26 5.80994 145.425 6.2778 146.378 7.1965C147.345 8.13226 147.837 9.41893 147.852 11.0589V13.1205H140.332L140.334 13.1157ZM145.432 11.0541C145.4 10.0818 145.149 9.34583 144.677 8.84871C144.211 8.37352 143.614 8.13714 142.883 8.13714C142.152 8.13714 141.555 8.37352 141.09 8.84871C140.631 9.34583 140.38 10.0818 140.332 11.0541H145.432Z" fill="white"/>
<path d="M168.319 13.508C167.946 15.1285 167.237 16.3738 166.192 17.2437C165.115 18.1064 163.84 18.5377 162.368 18.5377C161.038 18.506 159.926 18.1697 159.035 17.5313C158.128 16.9147 157.47 16.2032 157.061 15.3966C156.936 15.1334 156.824 14.88 156.724 14.6411C156.632 14.3926 156.554 14.0807 156.493 13.7054C156.376 13.0011 156.32 11.6511 156.32 9.65287C156.32 7.65464 156.378 6.26319 156.493 5.576C156.617 4.8888 156.807 4.33319 157.063 3.90917C157.473 3.10257 158.13 2.38126 159.037 1.75011C159.926 1.11165 161.038 0.782683 162.371 0.765625C164.006 0.782683 165.336 1.27979 166.367 2.26185C167.398 3.25122 168.046 4.47696 168.319 5.93665H165.597C165.387 5.23239 165.007 4.63048 164.457 4.13336C163.881 3.66061 163.185 3.41693 162.363 3.39988C161.759 3.41693 161.24 3.54121 160.804 3.77271C160.363 4.01396 160.004 4.3137 159.734 4.67435C159.4 5.05207 159.178 5.537 159.071 6.12915C158.947 6.75299 158.886 7.92756 158.886 9.65043C158.886 11.3733 158.947 12.5381 159.071 13.1473C159.181 13.7566 159.4 14.2488 159.734 14.6265C160.007 14.9872 160.363 15.2796 160.804 15.5038C161.237 15.767 161.759 15.901 162.363 15.901C163.806 15.901 164.885 15.1041 165.599 13.5104H168.319V13.508Z" fill="white"/>
<path d="M169.74 12.158C169.74 10.8445 169.845 9.83563 170.054 9.13137C170.271 8.44174 170.605 7.86178 171.053 7.38902C171.387 6.97476 171.85 6.60679 172.447 6.28025C173.037 5.97077 173.79 5.8075 174.713 5.79044C175.666 5.8075 176.436 5.97076 177.026 6.28268C177.606 6.61166 178.057 6.98206 178.374 7.39877C178.851 7.87152 179.192 8.44906 179.392 9.13869C179.585 9.84295 179.682 10.8494 179.682 12.1604C179.682 13.4714 179.585 14.4706 179.392 15.1578C179.19 15.845 178.851 16.442 178.371 16.944C178.215 17.1267 178.028 17.3071 177.801 17.4825C177.599 17.6823 177.34 17.8554 177.024 17.9991C176.436 18.3427 175.666 18.5231 174.713 18.5377C173.792 18.5206 173.037 18.3427 172.45 17.9991C171.853 17.6872 171.39 17.3363 171.056 16.944C170.607 16.4395 170.273 15.845 170.057 15.1578C169.847 14.4706 169.742 13.4714 169.742 12.1604L169.74 12.158ZM177.26 12.1823C177.26 11.2929 177.221 10.6422 177.143 10.2328C177.065 9.84051 176.907 9.49447 176.665 9.19718C176.487 8.91694 176.224 8.69519 175.873 8.53435C175.54 8.36621 175.152 8.28091 174.709 8.28091C174.297 8.28091 173.917 8.36621 173.568 8.53435C173.234 8.69519 172.964 8.9145 172.754 9.19474C172.545 9.49203 172.394 9.83563 172.301 10.2304C172.208 10.6398 172.162 11.2807 172.162 12.1555C172.162 13.0304 172.208 13.6566 172.301 14.0563C172.394 14.4657 172.545 14.8263 172.754 15.1383C172.964 15.3795 173.234 15.5915 173.568 15.7767C173.917 15.9522 174.297 16.0423 174.709 16.0423C175.15 16.0423 175.54 15.9546 175.873 15.7767C176.222 15.5915 176.487 15.3795 176.665 15.1383C176.907 14.8263 177.065 14.4657 177.143 14.0563C177.221 13.6542 177.26 13.0304 177.26 12.1799V12.1823Z" fill="white"/>
<path d="M182.521 5.94639H184.946V7.26474H184.992C185.816 6.28025 186.9 5.79044 188.243 5.79044C189.105 5.8075 189.802 5.95372 190.329 6.23396C190.848 6.54587 191.323 6.94065 191.757 7.42071C192.732 6.31681 194.04 5.77339 195.678 5.79044C196.708 5.79044 197.652 6.15353 198.507 6.88215C199.355 7.61809 199.794 8.69762 199.825 10.1207V18.3963H197.403V10.9761C197.403 10.1037 197.172 9.43843 196.709 8.98273C196.246 8.51729 195.646 8.28579 194.915 8.28579C194.184 8.28579 193.582 8.51729 193.109 8.98273C192.629 9.43843 192.39 10.1037 192.39 10.9761V18.3963H189.971V10.9761C189.971 10.1037 189.739 9.43843 189.276 8.98273C188.803 8.51729 188.201 8.28579 187.47 8.28579C186.739 8.28579 186.14 8.51729 185.677 8.98273C185.189 9.43843 184.946 10.1037 184.946 10.9761V18.3963H182.524V5.94883L182.521 5.94639Z" fill="white"/>
<path d="M203.929 7.86422H202.706V5.94639H203.929V4.30394C203.929 3.11963 204.246 2.24967 204.882 1.68919C205.501 1.17014 206.278 0.909392 207.216 0.909392H208.783V3.25853H207.399C206.668 3.23417 206.32 3.5802 206.351 4.2942V5.94396H208.783V7.86178H206.351V18.3915H203.931V7.86178L203.929 7.86422Z" fill="white"/>
<path d="M209.77 12.158C209.77 10.8445 209.875 9.83563 210.084 9.13137C210.301 8.44174 210.635 7.86178 211.084 7.38902C211.417 6.97476 211.88 6.60679 212.477 6.28025C213.067 5.97077 213.82 5.8075 214.744 5.79044C215.697 5.8075 216.467 5.97076 217.056 6.28268C217.636 6.61166 218.087 6.98206 218.404 7.39877C218.882 7.87152 219.223 8.44906 219.423 9.13869C219.615 9.84295 219.712 10.8494 219.712 12.1604C219.712 13.4714 219.615 14.4706 219.423 15.1578C219.22 15.845 218.882 16.442 218.401 16.944C218.245 17.1267 218.058 17.3071 217.831 17.4825C217.629 17.6823 217.371 17.8554 217.054 17.9991C216.467 18.3427 215.697 18.5231 214.744 18.5377C213.823 18.5206 213.067 18.3427 212.48 17.9991C211.883 17.6872 211.42 17.3363 211.086 16.944C210.638 16.4395 210.304 15.845 210.087 15.1578C209.877 14.4706 209.773 13.4714 209.773 12.1604L209.77 12.158ZM217.29 12.1823C217.29 11.2929 217.251 10.6422 217.173 10.2328C217.095 9.84051 216.937 9.49447 216.696 9.19718C216.518 8.91694 216.255 8.69519 215.904 8.53435C215.57 8.36621 215.182 8.28091 214.739 8.28091C214.327 8.28091 213.947 8.36621 213.598 8.53435C213.265 8.69519 212.994 8.9145 212.784 9.19474C212.575 9.49203 212.424 9.83563 212.331 10.2304C212.239 10.6398 212.192 11.2807 212.192 12.1555C212.192 13.0304 212.239 13.6566 212.331 14.0563C212.424 14.4657 212.575 14.8263 212.784 15.1383C212.994 15.3795 213.265 15.5915 213.598 15.7767C213.947 15.9522 214.327 16.0423 214.739 16.0423C215.18 16.0423 215.57 15.9546 215.904 15.7767C216.252 15.5915 216.518 15.3795 216.696 15.1383C216.937 14.8263 217.095 14.4657 217.173 14.0563C217.251 13.6542 217.29 13.0304 217.29 12.1799V12.1823Z" fill="white"/>
<path d="M222.649 5.94639H225.069V7.26474H225.12C225.917 6.28025 226.965 5.79044 228.259 5.79044C229.226 5.8075 230.072 6.12429 230.79 6.74569L229.024 8.90963C228.512 8.49292 227.981 8.28335 227.43 8.28335C226.811 8.28335 226.28 8.49048 225.836 8.90719C225.339 9.31658 225.083 9.97697 225.069 10.8884V18.3939H222.649V5.94639Z" fill="white"/>
<path d="M234.77 2.15707V5.94639H236.537V7.86422H234.77V15.1212C234.753 15.7523 235.04 16.0618 235.63 16.0448H236.537V18.3939H235.272C234.421 18.3939 233.725 18.1234 233.184 17.58C232.628 17.0609 232.348 16.3104 232.348 15.3283V7.86422H231.132V5.94639H232.348V2.15707H234.77Z" fill="white"/>
<path d="M244.103 16.1983L251.782 3.25853H244.166V0.909392H254.918V2.90275L246.966 15.901H254.918V18.3939H244.103V16.1983Z" fill="white"/>
<path d="M257.065 12.158C257.065 10.8445 257.17 9.83563 257.379 9.13137C257.596 8.44174 257.93 7.86178 258.378 7.38902C258.712 6.97476 259.175 6.60679 259.772 6.28025C260.362 5.97077 261.115 5.8075 262.038 5.79044C262.991 5.8075 263.761 5.97076 264.351 6.28268C264.931 6.61166 265.382 6.98206 265.699 7.39877C266.176 7.87152 266.517 8.44906 266.717 9.13869C266.91 9.84295 267.007 10.8494 267.007 12.1604C267.007 13.4714 266.91 14.4706 266.717 15.1578C266.515 15.845 266.176 16.442 265.696 16.944C265.54 17.1267 265.353 17.3071 265.126 17.4825C264.924 17.6823 264.665 17.8554 264.349 17.9991C263.761 18.3427 262.991 18.5231 262.038 18.5377C261.117 18.5206 260.362 18.3427 259.775 17.9991C259.178 17.6872 258.715 17.3363 258.381 16.944C257.932 16.4395 257.598 15.845 257.382 15.1578C257.172 14.4706 257.067 13.4714 257.067 12.1604L257.065 12.158ZM264.585 12.1823C264.585 11.2929 264.546 10.6422 264.468 10.2328C264.39 9.84051 264.232 9.49447 263.99 9.19718C263.812 8.91694 263.549 8.69519 263.198 8.53435C262.865 8.36621 262.477 8.28091 262.034 8.28091C261.622 8.28091 261.242 8.36621 260.893 8.53435C260.559 8.69519 260.289 8.9145 260.079 9.19474C259.87 9.49203 259.719 9.83563 259.626 10.2304C259.533 10.6398 259.487 11.2807 259.487 12.1555C259.487 13.0304 259.533 13.6566 259.626 14.0563C259.719 14.4657 259.87 14.8263 260.079 15.1383C260.289 15.3795 260.559 15.5915 260.893 15.7767C261.242 15.9522 261.622 16.0423 262.034 16.0423C262.475 16.0423 262.865 15.9546 263.198 15.7767C263.547 15.5915 263.812 15.3795 263.99 15.1383C264.232 14.8263 264.39 14.4657 264.468 14.0563C264.546 13.6542 264.585 13.0304 264.585 12.1799V12.1823Z" fill="white"/>
<path d="M269.946 5.94639H272.366V7.26474H272.412C273.209 6.28025 274.255 5.79044 275.546 5.79044C276.545 5.79044 277.457 6.15353 278.285 6.88215C279.104 7.61809 279.535 8.69761 279.574 10.1207V18.3963H277.154V10.9761C277.154 10.1037 276.93 9.43842 276.479 8.98273C276.038 8.51729 275.468 8.28579 274.771 8.28579C274.074 8.28579 273.502 8.51729 273.051 8.98273C272.593 9.43842 272.366 10.1037 272.366 10.9761V18.3963H269.946V5.94639Z" fill="white"/>
<path d="M284.957 13.1157C284.957 14.1148 285.235 14.8751 285.793 15.3966C286.312 15.9254 286.994 16.1885 287.838 16.1885C288.822 16.1885 289.702 15.784 290.477 14.9774L292.231 16.5248C291.001 17.8822 289.553 18.5547 287.889 18.5377C287.253 18.5377 286.634 18.4426 286.032 18.2501C285.73 18.1454 285.435 18.0064 285.15 17.831C284.848 17.6799 284.565 17.4923 284.302 17.2681C283.79 16.8051 283.376 16.1569 283.059 15.3259C282.71 14.5266 282.537 13.4861 282.537 12.2091C282.537 10.9322 282.688 9.95504 282.991 9.13869C283.293 8.30772 283.68 7.6522 284.151 7.17214C284.631 6.68477 285.169 6.33385 285.764 6.11697C286.351 5.90009 286.934 5.79288 287.506 5.79288C288.883 5.80994 290.048 6.2778 291.001 7.1965C291.968 8.13226 292.46 9.41893 292.475 11.0589V13.1205H284.955L284.957 13.1157ZM290.055 11.0541C290.023 10.0818 289.772 9.34583 289.3 8.84871C288.834 8.37352 288.237 8.13714 287.506 8.13714C286.775 8.13714 286.178 8.37352 285.713 8.84871C285.254 9.34583 285.001 10.0818 284.955 11.0541H290.055Z" fill="white"/>
<path fill-rule="evenodd" clip-rule="evenodd" d="M320.394 19.4038C313.288 14.9443 307.605 9.08364 303.363 1.84371C309.86 6.9002 315.537 12.756 320.394 19.4038Z" fill="white"/>
<path fill-rule="evenodd" clip-rule="evenodd" d="M301.567 19.4038C306.421 12.756 312.101 6.90025 318.598 1.84376C314.358 9.08125 308.673 14.9419 301.567 19.4038Z" fill="white"/>
<path fill-rule="evenodd" clip-rule="evenodd" d="M19.5191 19.4038C12.4132 14.9443 6.73043 9.08364 2.48785 1.84371C8.98453 6.9002 14.6624 12.756 19.5191 19.4038Z" fill="white"/>
<path fill-rule="evenodd" clip-rule="evenodd" d="M0.691895 19.4038C5.54613 12.756 11.2265 6.90025 17.7232 1.84376C13.483 9.08125 7.7978 14.9419 0.691895 19.4038Z" fill="white"/>
</svg>
